<?xml version="1.0" encoding="UTF-8"?>
<svg version="1.1" xmlns="http://www.w3.org/2000/svg" width="136" height="121">
<path d="M0 0 C1.35665771 -0.00956978 1.35665771 -0.00956978 2.74072266 -0.01933289 C3.7054248 -0.02044571 4.67012695 -0.02155853 5.6640625 -0.02270508 C6.66614746 -0.02603348 7.66823242 -0.02936188 8.70068359 -0.03279114 C10.81542503 -0.03784457 12.93017441 -0.04019995 15.04492188 -0.04003906 C18.27747708 -0.04222848 21.50969249 -0.06040915 24.7421875 -0.0793457 C26.799478 -0.08227937 28.85677012 -0.08426434 30.9140625 -0.08520508 C31.87876465 -0.09239059 32.8434668 -0.09957611 33.83740234 -0.10697937 C39.79911444 -0.08669941 44.08857344 0.06371996 48.6015625 4.33276367 C50.79374548 7.98640196 50.9524064 9.94408563 50.2890625 14.14526367 C48.49010576 17.11254656 46.44205393 19.56876795 43.2890625 21.14526367 C41.83869143 21.23475784 40.38427621 21.26284807 38.93115234 21.25878906 C37.57997818 21.25867577 37.57997818 21.25867577 36.20150757 21.25856018 C35.22751007 21.2533989 34.25351257 21.24823761 33.25 21.24291992 C32.25400787 21.24150497 31.25801575 21.24009003 30.23184204 21.2386322 C27.04255197 21.23302303 23.85333144 21.22046897 20.6640625 21.20776367 C18.50520935 21.20274985 16.34635509 21.19818674 14.1875 21.1940918 C8.88799393 21.18305062 3.58854002 21.16577981 -1.7109375 21.14526367 C-2.0409375 27.08526367 -2.3709375 33.02526367 -2.7109375 39.14526367 C21.1609733 36.6101935 42.25904146 30.13539197 61.2890625 15.14526367 C62.2790625 15.64026367 62.2790625 15.64026367 63.2890625 16.14526367 C47.40770371 32.68834574 27.80804997 43.50110899 4.41796875 44.38354492 C-9.07453904 44.64765255 -20.16209495 43.33305333 -32.7109375 38.14526367 C-32.7109375 37.81526367 -32.7109375 37.48526367 -32.7109375 37.14526367 C-30.4009375 37.14526367 -28.0909375 37.14526367 -25.7109375 37.14526367 C-25.74574219 36.1784668 -25.78054687 35.21166992 -25.81640625 34.21557617 C-26.03221747 23.83608403 -25.90677486 14.52593375 -18.38671875 6.61401367 C-12.90987014 1.81379204 -7.21026312 0.03474593 0 0 Z " fill="#583181" transform="translate(50.7109375,14.854736328125)"/>
<path d="M0 0 C0.66 0 1.32 0 2 0 C0.82744291 3.33727786 -0.18868404 5.77437487 -3 8 C-3.66 8 -4.32 8 -5 8 C-5 8.66 -5 9.32 -5 10 C-5.66 10 -6.32 10 -7 10 C-7 10.66 -7 11.32 -7 12 C-19.08945858 22.75264345 -37.7515287 31.21585104 -54 31 C-53.97381592 31.8470752 -53.94763184 32.69415039 -53.9206543 33.56689453 C-53.83507495 36.73138062 -53.77257903 39.89527406 -53.7253418 43.06054688 C-53.7003072 44.42630503 -53.66626782 45.79193067 -53.62280273 47.15722656 C-53.22523969 59.97278811 -53.22523969 59.97278811 -56.39453125 63.8671875 C-60.0647739 66.87161401 -62.18423587 67.30713618 -66.96875 67.203125 C-70.11167017 66.88883298 -71.66312604 66.13657048 -74 64 C-77.33754538 57.13235854 -77.36345725 51.04360323 -77.1875 43.5 C-77.17396484 42.39140625 -77.16042969 41.2828125 -77.14648438 40.140625 C-77.11138881 37.42656768 -77.0622227 34.71354807 -77 32 C-77.88945313 31.70351562 -78.77890625 31.40703125 -79.6953125 31.1015625 C-83.796875 29.734375 -87.8984375 28.3671875 -92 27 C-92 26.67 -92 26.34 -92 26 C-91.43829102 26.0407666 -90.87658203 26.0815332 -90.29785156 26.12353516 C-58.90410257 28.28225339 -30.97218337 23.75505015 -5 5 C-4.44957031 4.43925781 -3.89914063 3.87851562 -3.33203125 3.30078125 C-2 2 -2 2 0 2 C0 1.34 0 0.68 0 0 Z " fill="#583181" transform="translate(102,42)"/>
<path d="M0 0 C0.99 0.495 0.99 0.495 2 1 C-11.71427583 15.28570399 -26.55825017 23.93239986 -46 28 C-46.8971875 28.1959375 -47.794375 28.391875 -48.71875 28.59375 C-53.60410309 29.19860324 -58.45809485 29.10373856 -63.375 29.0625 C-64.39722656 29.05798828 -65.41945313 29.05347656 -66.47265625 29.04882812 C-68.98183194 29.037103 -71.4908849 29.02069176 -74 29 C-74 28.67 -74 28.34 -74 28 C-70.04 28 -66.08 28 -62 28 C-62 27.34 -62 26.68 -62 26 C-62.99 25.67 -63.98 25.34 -65 25 C-65 18.4 -65 11.8 -65 5 C-49.49 5 -33.98 5 -18 5 C-18 5.33 -18 5.66 -18 6 C-32.85 6 -47.7 6 -63 6 C-63.33 11.94 -63.66 17.88 -64 24 C-40.1280892 21.46492983 -19.03002104 14.9901283 0 0 Z " fill="#8C76A2" transform="translate(112,30)"/>
<path d="M0 0 C0.66 0 1.32 0 2 0 C0.82744291 3.33727786 -0.18868404 5.77437487 -3 8 C-3.66 8 -4.32 8 -5 8 C-5 8.66 -5 9.32 -5 10 C-5.66 10 -6.32 10 -7 10 C-7 10.66 -7 11.32 -7 12 C-19.21363834 22.86309179 -37.65756708 31 -54 31 C-54 40.57 -54 50.14 -54 60 C-54.33 60 -54.66 60 -55 60 C-55.02469321 55.7641643 -55.04285671 51.52836658 -55.05493164 47.29248047 C-55.05996474 45.8510668 -55.06679173 44.40965824 -55.07543945 42.96826172 C-55.08754983 40.89809915 -55.09323847 38.82800399 -55.09765625 36.7578125 C-55.10289307 35.5114502 -55.10812988 34.26508789 -55.11352539 32.98095703 C-55 30 -55 30 -54 28 C-54.66 27.34 -55.32 26.68 -56 26 C-54.89785156 25.79246094 -53.79570313 25.58492187 -52.66015625 25.37109375 C-34.38539994 21.73644777 -18.28975478 15.26404769 -3.8125 3.3203125 C-2 2 -2 2 0 2 C0 1.34 0 0.68 0 0 Z " fill="#786190" transform="translate(102,42)"/>
<path d="M0 0 C1.63129887 4.06285757 0.29968777 7.20102184 -0.9375 11.25 C-1.31777344 12.51328125 -1.69804688 13.7765625 -2.08984375 15.078125 C-2.39019531 16.04234375 -2.69054687 17.0065625 -3 18 C-4.98 17.34 -6.96 16.68 -9 16 C-9.33 16.99 -9.66 17.98 -10 19 C-10.33 19 -10.66 19 -11 19 C-11.061875 17.8553125 -11.061875 17.8553125 -11.125 16.6875 C-11.77823609 13.67594887 -11.77823609 13.67594887 -15.0625 12.1875 C-16.5165625 11.5996875 -16.5165625 11.5996875 -18 11 C-14.28907079 7.8411676 -10.49789353 5.51404508 -6.1875 3.25 C-5.02605469 2.63640625 -3.86460938 2.0228125 -2.66796875 1.390625 C-1.34732422 0.70226562 -1.34732422 0.70226562 0 0 Z " fill="#674F83" transform="translate(126,15)"/>
<path d="M0 0 C0.66 0.33 1.32 0.66 2 1 C-6.4716997 9.82468718 -14.88175709 16.72164225 -26 22 C-26.66 22 -27.32 22 -28 22 C-28 21.34 -28 20.68 -28 20 C-28.99 20.33 -29.98 20.66 -31 21 C-33.6875 20.5625 -33.6875 20.5625 -36 20 C-32.78374629 17.85583086 -29.52267964 16.60581104 -25.9375 15.25 C-16.30584786 11.49401415 -8.11661263 6.39353286 0 0 Z " fill="#6C637E" transform="translate(112,30)"/>
<path d="M0 0 C0.66 0 1.32 0 2 0 C0.82744291 3.33727786 -0.18868404 5.77437487 -3 8 C-3.66 8 -4.32 8 -5 8 C-5 8.66 -5 9.32 -5 10 C-5.66 10 -6.32 10 -7 10 C-7 10.66 -7 11.32 -7 12 C-9.01171875 13.62109375 -9.01171875 13.62109375 -11.6875 15.4375 C-12.55761719 16.03433594 -13.42773438 16.63117187 -14.32421875 17.24609375 C-21.57683742 22 -21.57683742 22 -24 22 C-24 21.34 -24 20.68 -24 20 C-25.32 19.34 -26.64 18.68 -28 18 C-26.44152344 17.27296875 -26.44152344 17.27296875 -24.8515625 16.53125 C-17.1344971 12.84957829 -10.28986236 9.17072615 -3.8203125 3.46875 C-2 2 -2 2 0 2 C0 1.34 0 0.68 0 0 Z " fill="#654F7D" transform="translate(102,42)"/>
<path d="M0 0 C0.33 0 0.66 0 1 0 C1.33 5.94 1.66 11.88 2 18 C2.99 17.67 3.98 17.34 5 17 C5.33 18.32 5.66 19.64 6 21 C8.31 21.33 10.62 21.66 13 22 C13 22.66 13 23.32 13 24 C12.34 24.66 11.68 25.32 11 26 C4.17933412 25.75197579 -1.69710273 23.49103477 -8 21 C-8 20.67 -8 20.34 -8 20 C-5.69 20 -3.38 20 -1 20 C-1.01160156 18.97519531 -1.02320313 17.95039062 -1.03515625 16.89453125 C-1.04454022 15.533856 -1.05363977 14.17317876 -1.0625 12.8125 C-1.07087891 12.13896484 -1.07925781 11.46542969 -1.08789062 10.77148438 C-1.10606538 7.04565869 -0.89299392 3.6211958 0 0 Z " fill="#614181" transform="translate(26,32)"/>
<path d="M0 0 C0 0.99 0 1.98 0 3 C-2.08000011 3.84161854 -4.16414146 4.67300763 -6.25 5.5 C-7.41015625 5.9640625 -8.5703125 6.428125 -9.765625 6.90625 C-13 8 -13 8 -17 8 C-17 7.34 -17 6.68 -17 6 C-17.66 6 -18.32 6 -19 6 C-18.67 5.01 -18.34 4.02 -18 3 C-15.48828125 1.796875 -15.48828125 1.796875 -12.3125 0.75 C-11.27738281 0.39421875 -10.24226563 0.0384375 -9.17578125 -0.328125 C-5.74685316 -1.05355628 -3.387749 -0.7923371 0 0 Z " fill="#604C7C" transform="translate(78,62)"/>
<path d="M0 0 C0.66 0 1.32 0 2 0 C2 6.27 2 12.54 2 19 C4.31 19 6.62 19 9 19 C7.68 19.33 6.36 19.66 5 20 C5 20.66 5 21.32 5 22 C0.71 22 -3.58 22 -8 22 C-8.33 21.34 -8.66 20.68 -9 20 C-5.04 19.505 -5.04 19.505 -1 19 C-1.01160156 17.96359375 -1.02320313 16.9271875 -1.03515625 15.859375 C-1.04453837 14.48958514 -1.05363812 13.11979332 -1.0625 11.75 C-1.07506836 10.72712891 -1.07506836 10.72712891 -1.08789062 9.68359375 C-1.10428392 6.30657446 -1.05628768 3.22708361 0 0 Z " fill="#503270" transform="translate(45,36)"/>
<path d="M0 0 C0.92111572 0.04543945 0.92111572 0.04543945 1.86083984 0.09179688 C4.69877744 0.23036284 7.5368812 0.36519847 10.375 0.5 C11.34050781 0.54769531 12.30601563 0.59539062 13.30078125 0.64453125 C19.53944892 0.93762302 25.75469222 1.06171592 32 1 C32 1.33 32 1.66 32 2 C30.14375 2.1546875 30.14375 2.1546875 28.25 2.3125 C24.7031688 2.75742052 22.59334442 3.40665558 20 6 C19.01 7.485 19.01 7.485 18 9 C17.01 9.66 16.02 10.32 15 11 C15 9.35 15 7.7 15 6 C14.195625 5.731875 13.39125 5.46375 12.5625 5.1875 C8.375 3.79166667 4.1875 2.39583333 0 1 C0 0.67 0 0.34 0 0 Z " fill="#7C678F" transform="translate(10,68)"/>
<path d="M0 0 C-0.33 0.66 -0.66 1.32 -1 2 C-11.89 2 -22.78 2 -34 2 C-34 1.34 -34 0.68 -34 0 C-29.64028686 -0.16775443 -25.28038583 -0.32829897 -20.92016602 -0.48217773 C-19.43702051 -0.53553529 -17.95394439 -0.59085973 -16.47094727 -0.64819336 C-14.33885663 -0.73027921 -12.20661621 -0.80528001 -10.07421875 -0.87890625 C-8.14968872 -0.94960327 -8.14968872 -0.94960327 -6.1862793 -1.02172852 C-3 -1 -3 -1 0 0 Z " fill="#503769" transform="translate(81,16)"/>
<path d="M0 0 C-0.99 0.33 -1.98 0.66 -3 1 C-3.33 10.9 -3.66 20.8 -4 31 C-4.66 31.33 -5.32 31.66 -6 32 C-6.02896822 27.56251365 -6.04678788 23.12505153 -6.0625 18.6875 C-6.07087891 17.42486328 -6.07925781 16.16222656 -6.08789062 14.86132812 C-6.09272461 13.04858398 -6.09272461 13.04858398 -6.09765625 11.19921875 C-6.10289307 10.08377686 -6.10812988 8.96833496 -6.11352539 7.8190918 C-6 5 -6 5 -5 2 C-11.435 2.495 -11.435 2.495 -18 3 C-17.67 2.34 -17.34 1.68 -17 1 C-11.31648386 -0.0149136 -5.76082132 -0.12001711 0 0 Z " fill="#4E326A" transform="translate(51,69)"/>
<path d="M0 0 C0.66 0 1.32 0 2 0 C2.06058594 1.10859375 2.12117188 2.2171875 2.18359375 3.359375 C2.26802951 4.8229282 2.35267599 6.28646925 2.4375 7.75 C2.47681641 8.47960937 2.51613281 9.20921875 2.55664062 9.9609375 C2.76147098 13.4272973 3.0852002 16.65333026 4 20 C3.01 20.66 2.02 21.32 1 22 C0.18565857 19.14839609 -0.11881242 16.63373869 -0.09765625 13.671875 C-0.09282227 12.47304687 -0.09282227 12.47304687 -0.08789062 11.25 C-0.07951172 10.425 -0.07113281 9.6 -0.0625 8.75 C-0.05798828 7.90953125 -0.05347656 7.0690625 -0.04882812 6.203125 C-0.03707961 4.13538599 -0.01914522 2.06768376 0 0 Z " fill="#917FA2" transform="translate(25,80)"/>
<path d="M0 0 C0.66 0 1.32 0 2 0 C0.82744291 3.33727786 -0.18868404 5.77437487 -3 8 C-3.66 8 -4.32 8 -5 8 C-5 8.66 -5 9.32 -5 10 C-5.66 10 -6.32 10 -7 10 C-7.33 10.66 -7.66 11.32 -8 12 C-8 11.34 -8 10.68 -8 10 C-8.99 9.67 -9.98 9.34 -11 9 C-9.54634731 7.82750647 -8.08692581 6.66216184 -6.625 5.5 C-5.40683594 4.52546875 -5.40683594 4.52546875 -4.1640625 3.53125 C-2 2 -2 2 0 2 C0 1.34 0 0.68 0 0 Z " fill="#8A7D93" transform="translate(102,42)"/>
<path d="M0 0 C-0.66 0 -1.32 0 -2 0 C-2.33 1.65 -2.66 3.3 -3 5 C-5.64 5 -8.28 5 -11 5 C-10.67 3.68 -10.34 2.36 -10 1 C-3.375 -1.125 -3.375 -1.125 0 0 Z " fill="#6C5286" transform="translate(49,16)"/>
<path d="M0 0 C0.99 0.33 1.98 0.66 3 1 C3.125 7.625 3.125 7.625 2 11 C0.68 10.67 -0.64 10.34 -2 10 C-2.6875 7.25 -2.6875 7.25 -3 4 C-1.5625 1.625 -1.5625 1.625 0 0 Z " fill="#5C417D" transform="translate(121,22)"/>
<path d="M0 0 C0.33 0.99 0.66 1.98 1 3 C-0.65 4.32 -2.3 5.64 -4 7 C-5.65 6.01 -7.3 5.02 -9 4 C-4.5 0 -4.5 0 0 0 Z " fill="#644974" transform="translate(117,22)"/>
<path d="M0 0 C-1 3 -1 3 -3.1875 4.1875 C-6.25390311 5.07334979 -8.82438155 5.14770318 -12 5 C-11.34 4.01 -10.68 3.02 -10 2 C-9.34 2.33 -8.68 2.66 -8 3 C-8 2.01 -8 1.02 -8 0 C-4.94736336 -0.98120464 -3.05263664 -0.98120464 0 0 Z " fill="#644980" transform="translate(84,50)"/>
<path d="M0 0 C0.33 0 0.66 0 1 0 C1.28875 0.9075 1.5775 1.815 1.875 2.75 C2.76531776 5.32202908 3.71494413 7.61346766 5 10 C1.69564916 11.12377697 -0.0506862 10.89554742 -3.25 9.5625 C-3.95640625 9.27503906 -4.6628125 8.98757812 -5.390625 8.69140625 C-5.92171875 8.46324219 -6.4528125 8.23507813 -7 8 C-7 7.67 -7 7.34 -7 7 C-4.69 7 -2.38 7 0 7 C0 4.69 0 2.38 0 0 Z " fill="#8F819B" transform="translate(25,45)"/>
<path d="M0 0 C1.5 1.0625 1.5 1.0625 3 3 C3.3125 6.5625 3.3125 6.5625 3 10 C2.34 10.66 1.68 11.32 1 12 C-0.4606285 9.35261084 -1 8.10551666 -1 5 C-1.66 4.67 -2.32 4.34 -3 4 C-2.34 3.67 -1.68 3.34 -1 3 C-0.67 2.01 -0.34 1.02 0 0 Z " fill="#684A82" transform="translate(98,19)"/>
<path d="M0 0 C-1.32 0.33 -2.64 0.66 -4 1 C-4 1.66 -4 2.32 -4 3 C-2.35 3 -0.7 3 1 3 C-2.75 6 -2.75 6 -5 6 C-5 5.34 -5 4.68 -5 4 C-5.99 4.33 -6.98 4.66 -8 5 C-10.6875 4.5625 -10.6875 4.5625 -13 4 C-10.56272708 2.37515139 -8.62713877 1.34310925 -5.9375 0.3125 C-5.24527344 0.04050781 -4.55304688 -0.23148438 -3.83984375 -0.51171875 C-2 -1 -2 -1 0 0 Z " fill="#806893" transform="translate(89,46)"/>
<path d="M0 0 C1 2 1 2 0.125 4.875 C-0.24625 5.90625 -0.6175 6.9375 -1 8 C-1.165 8.763125 -1.33 9.52625 -1.5 10.3125 C-1.665 10.869375 -1.83 11.42625 -2 12 C-2.99 12.495 -2.99 12.495 -4 13 C-4.8125 10.4375 -4.8125 10.4375 -5 7 C-3.61938689 4.41907773 -1.8985496 2.22044902 0 0 Z " fill="#6D5088" transform="translate(32,22)"/>
<path d="M0 0 C0.556875 0.226875 1.11375 0.45375 1.6875 0.6875 C1.6875 1.6775 1.6875 2.6675 1.6875 3.6875 C-1.26914519 5.1658226 -4.05479737 4.74782783 -7.3125 4.6875 C-7.3125 4.0275 -7.3125 3.3675 -7.3125 2.6875 C-3.15982824 -0.42700382 -3.15982824 -0.42700382 0 0 Z " fill="#58446D" transform="translate(92.3125,44.3125)"/>
<path d="M0 0 C0 3 0 3 -1 5 C-0.67 5.99 -0.34 6.98 0 8 C-0.99 8.33 -1.98 8.66 -3 9 C-3.33 9.99 -3.66 10.98 -4 12 C-4.33 12 -4.66 12 -5 12 C-5.35338623 9.03155565 -5.5417682 6.84401782 -3.88671875 4.265625 C-2.64496832 2.79651181 -1.32662082 1.39295186 0 0 Z " fill="#84669C" transform="translate(120,22)"/>
<path d="M0 0 C4.5067218 -0.17673419 7.96625544 -0.13551182 12 2 C12.33 2.66 12.66 3.32 13 4 C11.02 4.33 9.04 4.66 7 5 C6.67 3.68 6.34 2.36 6 1 C4.02 1 2.04 1 0 1 C0 0.67 0 0.34 0 0 Z " fill="#89739B" transform="translate(85,15)"/>
<path d="M0 0 C0.66 0.33 1.32 0.66 2 1 C-0.64 3.64 -3.28 6.28 -6 9 C-6.66 8.01 -7.32 7.02 -8 6 C-5.36 4.02 -2.72 2.04 0 0 Z " fill="#8C8798" transform="translate(112,30)"/>
<path d="M0 0 C4.29 0.33 8.58 0.66 13 1 C8.45122326 3.27438837 6.83802456 3.07511657 2 2 C1.34 1.34 0.68 0.68 0 0 Z " fill="#B7B4BA" transform="translate(10,68)"/>
<path d="M0 0 C1.65 0 3.3 0 5 0 C5 1.32 5 2.64 5 4 C3.02 4 1.04 4 -1 4 C-0.67 2.68 -0.34 1.36 0 0 Z " fill="#4E316F" transform="translate(64,53)"/>
<path d="M0 0 C-0.66 0.66 -1.32 1.32 -2 2 C-2 2.33 -2 2.66 -2 3 C-4.31 3 -6.62 3 -9 3 C-8.67 2.01 -8.34 1.02 -8 0 C-4.71303767 -0.79953138 -3.28976808 -1.09658936 0 0 Z " fill="#4D3271" transform="translate(42,105)"/>
<path d="M0 0 C0 0.66 0 1.32 0 2 C-0.99 2.495 -0.99 2.495 -2 3 C-2 3.66 -2 4.32 -2 5 C-2.99 5.33 -3.98 5.66 -5 6 C-5.99 4.68 -6.98 3.36 -8 2 C-5.09399739 0.74335022 -3.20395416 0 0 0 Z " fill="#655872" transform="translate(99,41)"/>
<path d="M0 0 C2.64 0 5.28 0 8 0 C8 0.99 8 1.98 8 3 C5.03 2.67 2.06 2.34 -1 2 C-0.67 1.34 -0.34 0.68 0 0 Z " fill="#4C3169" transform="translate(83,16)"/>
<path d="M0 0 C1.32 0 2.64 0 4 0 C3 3 3 3 1 4 C-1.6723621 4.13415472 -4.32250488 4.04318541 -7 4 C-7 3.67 -7 3.34 -7 3 C-5.5459375 2.814375 -5.5459375 2.814375 -4.0625 2.625 C-2.5465625 2.315625 -2.5465625 2.315625 -1 2 C-0.67 1.34 -0.34 0.68 0 0 Z " fill="#75628E" transform="translate(40,105)"/>
<path d="M0 0 C0 0.66 0 1.32 0 2 C1.32 2.33 2.64 2.66 4 3 C2.35 3.66 0.7 4.32 -1 5 C-1 4.34 -1 3.68 -1 3 C-2.32 2.34 -3.64 1.68 -5 1 C-2 0 -2 0 0 0 Z " fill="#725D89" transform="translate(79,59)"/>
<path d="M0 0 C2.31 0.33 4.62 0.66 7 1 C6.67 1.66 6.34 2.32 6 3 C3.36 3 0.72 3 -2 3 C-1.34 2.01 -0.68 1.02 0 0 Z " fill="#563C73" transform="translate(52,69)"/>
<path d="M0 0 C2.97 0.33 5.94 0.66 9 1 C7.68 1.33 6.36 1.66 5 2 C5 2.66 5 3.32 5 4 C4.01 4 3.02 4 2 4 C2 3.34 2 2.68 2 2 C1.34 2 0.68 2 0 2 C0 1.34 0 0.68 0 0 Z " fill="#492F69" transform="translate(59,66)"/>
<path d="M0 0 C-0.33 0.99 -0.66 1.98 -1 3 C-2.32 3 -3.64 3 -5 3 C-5 2.34 -5 1.68 -5 1 C-5.99 1.33 -6.98 1.66 -8 2 C-8 1.34 -8 0.68 -8 0 C-4.94736336 -0.98120464 -3.05263664 -0.98120464 0 0 Z " fill="#503866" transform="translate(84,50)"/>
<path d="M0 0 C2.31 0.33 4.62 0.66 7 1 C6.67 2.32 6.34 3.64 6 5 C3.5625 4.1875 3.5625 4.1875 1 3 C0.67 2.01 0.34 1.02 0 0 Z " fill="#6A5183" transform="translate(27,103)"/>
<path d="M0 0 C2.03144641 0.93446535 4.03533587 1.93224776 6 3 C2.94736336 3.98120464 1.05263664 3.98120464 -2 3 C-2 2.34 -2 1.68 -2 1 C-1.34 0.67 -0.68 0.34 0 0 Z " fill="#715A89" transform="translate(31,54)"/>
<path d="M0 0 C0.66 0 1.32 0 2 0 C2 2.31 2 4.62 2 7 C1.34 7 0.68 7 0 7 C-0.38133299 5.0085944 -0.71325582 3.00720923 -1 1 C-0.67 0.67 -0.34 0.34 0 0 Z " fill="#6E5980" transform="translate(99,22)"/>
<path d="" fill="#A099A8" transform="translate(0,0)"/>
</svg>
