<?xml version="1.0" encoding="UTF-8"?>
<svg version="1.1" xmlns="http://www.w3.org/2000/svg" width="200" height="200">
<path d="M0 0 C2.57240014 1.30985433 4.93910176 2.65915542 7.375 4.1875 C8.90755886 5.11932123 10.44148538 6.0488957 11.9765625 6.9765625 C13.20101074 7.7195459 13.20101074 7.7195459 14.45019531 8.47753906 C18.83329454 11.09464044 23.2950082 13.57047566 27.75 16.0625 C38.06047553 21.85389 48.26865447 27.81032612 58.45019531 33.82446289 C67.23966562 39.00552618 76.10173008 43.99472317 85 49 C85 82.66 85 116.32 85 151 C79.06 154.3 73.12 157.6 67 161 C63.15668827 163.21483157 59.32219519 165.43736452 55.5 167.6875 C53.45601841 168.88460859 51.41173643 170.08120439 49.3671875 171.27734375 C48.32788086 171.88562012 47.28857422 172.49389648 46.21777344 173.12060547 C37.5001123 178.21230163 28.75502261 183.25593397 19.99560547 188.27539062 C17.16695951 189.90387922 14.35021269 191.55129361 11.53515625 193.203125 C9.91965308 194.13607887 8.30379384 195.06841659 6.6875 196 C5.61266357 196.64146973 5.61266357 196.64146973 4.51611328 197.29589844 C1.79553623 198.84540127 -0.3321721 199.99895815 -3.50390625 200.00390625 C-7.03749995 198.58272694 -10.32432895 196.82237162 -13.625 194.9375 C-14.39497314 194.5041333 -15.16494629 194.0707666 -15.95825195 193.62426758 C-24.2680413 188.91293187 -32.46297375 184.00423407 -40.66748047 179.11279297 C-48.14000719 174.66299801 -55.66820033 170.32389597 -63.25 166.0625 C-64.18755127 165.52778076 -65.12510254 164.99306152 -66.09106445 164.44213867 C-70.25731835 162.06941576 -74.42169115 159.76456407 -78.7265625 157.65234375 C-79.78955566 157.10018188 -79.78955566 157.10018188 -80.87402344 156.53686523 C-82.70941931 155.58580054 -84.56864449 154.68109497 -86.4296875 153.78125 C-93.14524065 146.51457243 -90.14510467 127.92715558 -90.1328125 118.3125 C-90.1334876 116.43733711 -90.13445934 114.56217431 -90.13571167 112.68701172 C-90.13717604 108.78400833 -90.13507301 104.88102802 -90.13037109 100.97802734 C-90.12464271 95.98032318 -90.12798033 90.98267236 -90.13394356 85.98497009 C-90.13755633 82.12452797 -90.13640782 78.26409851 -90.13381577 74.40365601 C-90.13315012 72.56008905 -90.13396222 70.71652093 -90.13629532 68.87295532 C-90.13883707 66.30329324 -90.13496116 63.73371811 -90.12939453 61.1640625 C-90.13141876 60.40764969 -90.13344299 59.65123688 -90.13552856 58.87190247 C-90.1205464 55.13521564 -90.0211958 51.60941364 -89 48 C-87.50048828 46.71728516 -87.50048828 46.71728516 -85.5703125 45.7890625 C-84.50901123 45.25792847 -84.50901123 45.25792847 -83.42626953 44.71606445 C-82.66685059 44.35601318 -81.90743164 43.99596191 -81.125 43.625 C-79.5606738 42.84348857 -77.99816884 42.05832105 -76.4375 41.26953125 C-75.674375 40.88619629 -74.91125 40.50286133 -74.125 40.10791016 C-70.49740433 38.21659247 -67.12268785 35.97056017 -63.71166992 33.72070312 C-61.16127851 32.10234005 -58.58589138 30.63611561 -55.92578125 29.20703125 C-49.94650271 25.97351353 -43.99832889 22.68756339 -38.0625 19.375 C-36.98581055 18.7754248 -35.90912109 18.17584961 -34.79980469 17.55810547 C-29.5136913 14.59704019 -24.27108677 11.58911525 -19.10546875 8.421875 C-18.19853271 7.86580566 -17.29159668 7.30973633 -16.35717773 6.73681641 C-14.65887654 5.68688809 -12.9666077 4.62711859 -11.28149414 3.55615234 C-10.52344482 3.0864502 -9.76539551 2.61674805 -8.984375 2.1328125 C-8.33178711 1.71918457 -7.67919922 1.30555664 -7.00683594 0.87939453 C-4.48988249 -0.22353324 -2.72491228 -0.26709001 0 0 Z M-17.68359375 33.69140625 C-19.2875472 34.615696 -20.87223116 35.57411157 -22.4375 36.5625 C-23.25154297 37.03236328 -24.06558594 37.50222656 -24.90429688 37.98632812 C-29.57053746 40.52003176 -29.57053746 40.52003176 -32 45 C-31.18994507 45.43868408 -31.18994507 45.43868408 -30.36352539 45.88623047 C-27.92667669 47.21007393 -25.49457413 48.54240693 -23.0625 49.875 C-22.21236328 50.33519531 -21.36222656 50.79539062 -20.48632812 51.26953125 C-19.67744141 51.71425781 -18.86855469 52.15898438 -18.03515625 52.6171875 C-17.2862915 53.02565918 -16.53742676 53.43413086 -15.76586914 53.85498047 C-14 55 -14 55 -13 57 C-12.95343557 58.67122643 -12.96232025 60.34417466 -13 62.015625 C-12.99806641 63.52189453 -12.99806641 63.52189453 -12.99609375 65.05859375 C-12.99867912 67.17084265 -13.03209002 69.28329863 -13.09765625 71.39453125 C-13.11284507 77.21698747 -13.11284507 77.21698747 -10.12084961 81.95361328 C-7.81092304 83.50094403 -5.49329597 84.77415142 -3 86 C-2.01128906 86.62648437 -1.02257812 87.25296875 -0.00390625 87.8984375 C0.80175781 88.38570312 1.60742188 88.87296875 2.4375 89.375 C3.26121094 89.87773438 4.08492187 90.38046875 4.93359375 90.8984375 C6.90386809 92.15680502 6.90386809 92.15680502 9 92 C9 76.16 9 60.32 9 44 C4.38 41.36 -0.24 38.72 -5 36 C-6.41410156 35.08089844 -7.82820313 34.16179688 -9.28515625 33.21484375 C-13.39702371 31.87016365 -13.95086352 31.98369542 -17.68359375 33.69140625 Z M-37 45 C-39.21602438 46.05130539 -39.21602438 46.05130539 -41.625 47.625 C-42.44226562 48.13289063 -43.25953125 48.64078125 -44.1015625 49.1640625 C-45.53628906 50.07285156 -45.53628906 50.07285156 -47 51 C-47.98236382 51.34226875 -47.98236382 51.34226875 -48.98457336 51.69145203 C-51.64368911 52.81205013 -53.1102536 53.79378639 -55 56 C-56.36760611 61.47123831 -56.34780736 66.92636843 -56.37890625 72.54296875 C-56.40717867 74.19340258 -56.43648678 75.84381897 -56.46678162 77.49421692 C-56.5191565 80.95366038 -56.53801406 84.41151956 -56.53735352 87.87133789 C-56.54117534 91.41018074 -56.60356537 94.93995808 -56.72192383 98.47680664 C-58.19851329 116.68251197 -58.19851329 116.68251197 -53.33123779 133.59283447 C-48.92068408 137.81801233 -43.89317717 139.74352177 -38 141 C-37.08202637 141.26377441 -36.16405273 141.52754883 -35.21826172 141.79931641 C-32.38864421 142.05530866 -31.19215261 141.39362108 -28.79296875 139.91015625 C-27.66665039 139.22856445 -27.66665039 139.22856445 -26.51757812 138.53320312 C-25.74865234 138.04787109 -24.97972656 137.56253906 -24.1875 137.0625 C-23.39923828 136.58103516 -22.61097656 136.09957031 -21.79882812 135.60351562 C-19.85745992 134.41516296 -17.92544763 133.21391745 -16 132 C-16.65612597 128.970153 -16.65612597 128.970153 -18.65820312 127.96362305 C-19.35880859 127.64949463 -20.05941406 127.33536621 -20.78125 127.01171875 C-21.54050781 126.63337891 -22.29976562 126.25503906 -23.08203125 125.86523438 C-24.67747258 125.08813331 -26.28990106 124.34486925 -27.91796875 123.63867188 C-30.49489938 122.30645562 -32.08187683 121.18888207 -34 119 C-34.58457947 116.10246277 -34.58457947 116.10246277 -34.73022461 112.67651367 C-34.78745697 111.42395279 -34.84468933 110.17139191 -34.90365601 108.88087463 C-35.05394223 102.82712929 -35.12331068 96.7821586 -35.09765625 90.7265625 C-35.0962413 89.43680511 -35.09482635 88.14704773 -35.09336853 86.81820679 C-35.08960795 83.4416295 -35.07983555 80.06509741 -35.06866455 76.6885376 C-35.05830888 73.22205211 -35.05384106 69.7555591 -35.04882812 66.2890625 C-35.03820524 59.52602347 -35.02120987 52.76301392 -35 46 C-35.66 45.67 -36.32 45.34 -37 45 Z M22.0625 61.3125 C20.96905273 61.91868164 20.96905273 61.91868164 19.85351562 62.53710938 C19.15033203 62.93349609 18.44714844 63.32988281 17.72265625 63.73828125 C16.75984741 64.28029175 16.75984741 64.28029175 15.77758789 64.83325195 C13.92909572 66.04653915 12.50474617 67.38684021 11 69 C13.03971112 70.27406288 15.08165264 71.54429202 17.125 72.8125 C17.69476563 73.16892578 18.26453125 73.52535156 18.8515625 73.89257812 C21.64157933 75.62048628 24.4138475 77.20116253 27.3671875 78.63671875 C30 80 30 80 31 82 C31.08977728 83.51164392 31.11757433 85.02720179 31.11352539 86.54150391 C31.11344986 87.48232819 31.11337433 88.42315247 31.11329651 89.39248657 C31.10813522 90.41023163 31.10297394 91.42797668 31.09765625 92.4765625 C31.0962413 93.51694672 31.09482635 94.55733093 31.09336853 95.62924194 C31.08775866 98.96119021 31.07520447 102.29307195 31.0625 105.625 C31.05748627 107.88020736 31.05292314 110.13541578 31.04882812 112.390625 C31.03778603 117.92710614 31.02103827 123.46354832 31 129 C35.70224534 127.51466863 39.6666739 125.5800505 43.8125 122.9375 C44.39708984 122.57333984 44.98167969 122.20917969 45.58398438 121.83398438 C48.44458636 120.11755544 48.44458636 120.11755544 51 118 C51.13992642 116.49863085 51.21215842 114.99087051 51.25634766 113.48364258 C51.28532135 112.52206741 51.31429504 111.56049225 51.34414673 110.56977844 C51.44139816 106.1530735 51.51571402 101.73653643 51.56982422 97.3190918 C51.60647278 94.98996203 51.66103103 92.66104214 51.73388672 90.33276367 C51.83734292 86.97758845 51.88175849 83.62605595 51.9140625 80.26953125 C51.95737701 79.23182083 52.00069153 78.19411041 52.0453186 77.12495422 C52.07935547 71.51088429 52.07935547 71.51088429 49.03959656 67.03533936 C46.75133456 65.49585218 44.47015386 64.22078114 42 63 C41.01128906 62.37351562 40.02257812 61.74703125 39.00390625 61.1015625 C38.19824219 60.61429688 37.39257812 60.12703125 36.5625 59.625 C35.73878906 59.12226562 34.91507813 58.61953125 34.06640625 58.1015625 C29.5419204 55.68964377 26.08892064 59.02838275 22.0625 61.3125 Z M-12 108 C-13.45362111 110.90724222 -13.12986328 113.4581448 -13.1328125 116.703125 C-13.13376923 117.37736511 -13.13472595 118.05160522 -13.13571167 118.74627686 C-13.13639344 120.18208916 -13.13453936 121.61790452 -13.13037109 123.05371094 C-13.12512241 125.19994529 -13.13026319 127.34596057 -13.13671875 129.4921875 C-13.14119055 132.98322603 -13.09808482 136.47146719 -13.0295105 139.96179199 C-13.00044254 141.96943518 -13.01272002 143.97753949 -13.02563477 145.98535156 C-13.08816711 152.31868788 -13.08816711 152.31868788 -10.57617188 157.90136719 C-8.67447092 159.33122522 -6.86336428 160.29335247 -4.6875 161.25 C-3.67139648 161.77400391 -3.67139648 161.77400391 -2.63476562 162.30859375 C-1.33599086 162.97131166 -0.02340152 163.60784582 1.30322266 164.21289062 C3 165 3 165 5.10546875 166.296875 C8.09158804 167.40512546 9.94815162 166.8567237 13 166 C15.73447727 164.64550621 18.29785188 163.06819547 20.875 161.4375 C21.56335938 161.01275391 22.25171875 160.58800781 22.9609375 160.15039062 C24.64600952 159.1089225 26.32377031 158.05564084 28 157 C26.86351798 153.59055395 26.46011714 153.39306229 23.47265625 151.73828125 C22.76302734 151.34189453 22.05339844 150.94550781 21.32226562 150.53710938 C20.57654297 150.13298828 19.83082031 149.72886719 19.0625 149.3125 C18.32064453 148.89677734 17.57878906 148.48105469 16.81445312 148.05273438 C13.1164424 145.79839511 13.1164424 145.79839511 9 145 C9.02618408 144.26362305 9.05236816 143.52724609 9.0793457 142.76855469 C9.18333686 139.42925384 9.2483341 136.09029345 9.3125 132.75 C9.35439453 131.59113281 9.39628906 130.43226563 9.43945312 129.23828125 C9.74287375 122.8667314 9.74287375 122.8667314 6.9296875 117.46875 C5.96289062 116.9840625 4.99609375 116.499375 4 116 C2.83673778 115.29153318 1.6767453 114.57767847 0.51953125 113.859375 C-0.7135735 113.15174847 -1.94929926 112.44867127 -3.1875 111.75 C-3.81591797 111.38648437 -4.44433594 111.02296875 -5.09179688 110.6484375 C-8.33964485 108.65620861 -8.33964485 108.65620861 -12 108 Z " fill="#6EBCFB" transform="translate(101,0)"/>
<path d="M0 0 C2.57240014 1.30985433 4.93910176 2.65915542 7.375 4.1875 C8.90755886 5.11932123 10.44148538 6.0488957 11.9765625 6.9765625 C13.20101074 7.7195459 13.20101074 7.7195459 14.45019531 8.47753906 C18.83329454 11.09464044 23.2950082 13.57047566 27.75 16.0625 C38.06047553 21.85389 48.26865447 27.81032612 58.45019531 33.82446289 C67.23966562 39.00552618 76.10173008 43.99472317 85 49 C85 82.66 85 116.32 85 151 C84.67 151 84.34 151 84 151 C83.67 134.5 83.34 118 83 101 C69.310683 108.69367865 69.310683 108.69367865 56 117 C55.01 117 54.02 117 53 117 C53 117.66 53 118.32 53 119 C51.68 119.33 50.36 119.66 49 120 C49.33 119.34 49.66 118.68 50 118 C50.69389492 111.1626834 50.65615596 104.21994084 50.78955078 97.35351562 C50.84627173 95.04448681 50.9280963 92.73593107 51.03564453 90.42871094 C52.18259198 78.3474496 52.18259198 78.3474496 48.75939941 67.19104004 C45.324627 64.01333772 41.3860078 62.55239117 37 61 C36.09515869 60.43917725 35.19031738 59.87835449 34.25805664 59.30053711 C32.00174366 57.67291378 32.00174366 57.67291378 29.11328125 58.55859375 C25.64368132 60.16497063 22.40595262 62.01105757 19.1875 64.0625 C18.60291016 64.42666016 18.01832031 64.79082031 17.41601562 65.16601562 C14.55541364 66.88244456 14.55541364 66.88244456 12 69 C12.57032959 69.32274902 13.14065918 69.64549805 13.72827148 69.97802734 C16.30120286 71.43814818 18.86937168 72.90644914 21.4375 74.375 C22.33533203 74.88289063 23.23316406 75.39078125 24.15820312 75.9140625 C25.01220703 76.40390625 25.86621094 76.89375 26.74609375 77.3984375 C27.93223267 78.07398682 27.93223267 78.07398682 29.14233398 78.76318359 C31 80 31 80 32 82 C32.09914121 84.65473959 32.13981339 87.28259677 32.1328125 89.9375 C32.13376923 90.73220703 32.13472595 91.52691406 32.13571167 92.34570312 C32.13639324 94.03369221 32.13454054 95.7216839 32.13037109 97.40966797 C32.12507884 99.96197622 32.13028728 102.51410391 32.13671875 105.06640625 C32.13968003 113.1116043 32.03193166 121.00662457 31 129 C32.32 128.67 33.64 128.34 35 128 C35 128.66 35 129.32 35 130 C33.9378125 130.51949219 32.875625 131.03898438 31.78125 131.57421875 C21.07709124 136.74113597 21.07709124 136.74113597 11 143 C11 143.66 11 144.32 11 145 C10.34 145 9.68 145 9 145 C8.83125405 141.77093849 8.66537263 138.54173589 8.5 135.3125 C8.45230469 134.40048828 8.40460938 133.48847656 8.35546875 132.54882812 C8.31035156 131.66259766 8.26523438 130.77636719 8.21875 129.86328125 C8.17685547 129.05157471 8.13496094 128.23986816 8.09179688 127.40356445 C8.0266959 125.69899233 8.0298574 123.99120101 8.08032227 122.28613281 C8.26305762 119.916837 8.26305762 119.916837 6.49609375 118.55859375 C5.81675781 118.18863281 5.13742188 117.81867188 4.4375 117.4375 C3.71433594 117.03015625 2.99117187 116.6228125 2.24609375 116.203125 C1.50488281 115.80609375 0.76367188 115.4090625 0 115 C-1.33473307 114.23159292 -2.66819975 113.46097908 -4 112.6875 C-4.99 112.130625 -5.98 111.57375 -7 111 C-7 110.67 -7 110.34 -7 110 C-5.35 110 -3.7 110 -2 110 C-2 107.03 -2 104.06 -2 101 C3.31903642 102.49938192 7.63272236 104.96776498 12.3125 107.8125 C18.15278835 111.3251757 24.03708298 114.68726832 30 118 C30 106.45 30 94.9 30 83 C24.13966032 85.49866387 24.13966032 85.49866387 18.5546875 88.375 C17.78769531 88.80296875 17.02070312 89.2309375 16.23046875 89.671875 C15.45316406 90.11015625 14.67585938 90.5484375 13.875 91 C12.69744141 91.65742188 12.69744141 91.65742188 11.49609375 92.328125 C8.31836305 94.10722549 5.16790919 95.89612018 2.0703125 97.8125 C0 99 0 99 -2 99 C-2.495 92.565 -2.495 92.565 -3 86 C1.3785374 87.75141496 4.97072742 89.62983966 9 92 C8.75552124 90.81736572 8.75552124 90.81736572 8.50610352 89.61083984 C7.87669148 85.12024457 7.87601955 80.75427304 7.90234375 76.2265625 C7.9037587 75.3028183 7.90517365 74.3790741 7.90663147 73.42733765 C7.91220391 70.49319138 7.92475131 67.55912299 7.9375 64.625 C7.94251856 62.62890736 7.94708085 60.63281351 7.95117188 58.63671875 C7.96131103 53.75775876 7.98089178 48.87896599 8 44 C2.72 41.03 -2.56 38.06 -8 35 C-6 34 -6 34 -2 35 C-2 24.77 -2 14.54 -2 4 C-2.99 4 -3.98 4 -5 4 C-5.33 4.66 -5.66 5.32 -6 6 C-8.31 6 -10.62 6 -13 6 C-9.29028987 1.89979407 -5.64725271 -0.69407575 0 0 Z " fill="#51B0FC" transform="translate(101,0)"/>
<path d="M0 0 C0 7.26 0 14.52 0 22 C-0.99 22.33 -1.98 22.66 -3 23 C-3.495 24.485 -3.495 24.485 -4 26 C-6.0625 27.1875 -6.0625 27.1875 -8 28 C-8.1854388 37.69217335 -8.32754363 47.38373544 -8.41449738 57.07729626 C-8.45623385 61.57861714 -8.51282917 66.07872377 -8.60351562 70.5793457 C-8.69050397 74.92367262 -8.73828574 79.26683265 -8.75901794 83.61196327 C-8.77378951 85.26871428 -8.80263767 86.92540201 -8.84584045 88.5816555 C-9.48366868 97.41121316 -9.48366868 97.41121316 -6.16577148 105.0831604 C-4.01259775 106.48057997 -4.01259775 106.48057997 -1.72253418 107.30488586 C-1.1540979 107.53427353 -0.58566162 107.76366119 0 108 C0 108.66 0 109.32 0 110 C0.99 110.495 0.99 110.495 2 111 C1.67 122.88 1.34 134.76 1 147 C-2.44965323 146.13758669 -4.68264651 145.23107361 -7.74609375 143.55859375 C-8.66011963 143.06093506 -9.57414551 142.56327637 -10.51586914 142.05053711 C-11.48000732 141.51823486 -12.44414551 140.98593262 -13.4375 140.4375 C-14.42290771 139.89681885 -15.40831543 139.3561377 -16.42358398 138.79907227 C-23.76146257 134.74682893 -30.9189598 130.48646058 -38 126 C-38.86118439 125.58411621 -39.72236877 125.16823242 -40.60964966 124.73974609 C-43 123 -43 123 -43.70236206 120.55541992 C-43.73596832 119.56131104 -43.76957458 118.56720215 -43.80419922 117.54296875 C-43.85042419 116.37556152 -43.89664917 115.2081543 -43.9442749 114.00537109 C-43.96608653 112.67029635 -43.98448924 111.33516281 -44 110 C-44.01272194 109.28749084 -44.02544388 108.57498169 -44.03855133 107.84088135 C-44.13739261 101.99788583 -44.14028353 96.15617188 -44.1328125 90.3125 C-44.1334876 88.43733711 -44.13445934 86.56217431 -44.13571167 84.68701172 C-44.13717604 80.78400833 -44.13507301 76.88102802 -44.13037109 72.97802734 C-44.12464271 67.98032318 -44.12798033 62.98267236 -44.13394356 57.98497009 C-44.13755633 54.12452797 -44.13640782 50.26409851 -44.13381577 46.40365601 C-44.13315012 44.56008905 -44.13396222 42.71652093 -44.13629532 40.87295532 C-44.13883707 38.30329324 -44.13496116 35.73371811 -44.12939453 33.1640625 C-44.13141876 32.40764969 -44.13344299 31.65123688 -44.13552856 30.87190247 C-44.1205464 27.13521564 -44.0211958 23.60941364 -43 20 C-41.50048828 18.71728516 -41.50048828 18.71728516 -39.5703125 17.7890625 C-38.86253662 17.43481201 -38.15476074 17.08056152 -37.42553711 16.71557617 C-36.66635986 16.35568604 -35.90718262 15.9957959 -35.125 15.625 C-33.56454828 14.8461594 -32.00595056 14.06359328 -30.44921875 13.27734375 C-29.68657715 12.89433105 -28.92393555 12.51131836 -28.13818359 12.11669922 C-25.29552319 10.63207617 -22.61809055 8.9455742 -19.9375 7.1875 C-5.9410879 -1.98036263 -5.9410879 -1.98036263 0 0 Z " fill="#1E89DD" transform="translate(55,28)"/>
<path d="M0 0 C3.68980656 46.07694432 3.68980656 46.07694432 -1.88525391 54.53027344 C-6.73732194 59.34997473 -12.5730087 61.29795508 -19.06640625 63.07226562 C-23.6865608 64.53336643 -27.4325511 67.14419996 -31.4375 69.8125 C-36.38649293 73.00901159 -39.9039868 74.9394078 -46 74 C-48.82563309 72.75643905 -51.35703555 71.18654497 -53.9375 69.5 C-54.96327148 68.85611328 -54.96327148 68.85611328 -56.00976562 68.19921875 C-57.68202789 67.146746 -59.34230082 66.07526433 -61 65 C-60.67 63.35 -60.34 61.7 -60 60 C-59.01 60 -58.02 60 -57 60 C-57 58.35 -57 56.7 -57 55 C-58.14339844 54.38511719 -59.28679687 53.77023438 -60.46484375 53.13671875 C-61.95599823 52.32080404 -63.44686907 51.50437081 -64.9375 50.6875 C-65.69224609 50.28337891 -66.44699219 49.87925781 -67.22460938 49.46289062 C-68.30258789 48.86831055 -68.30258789 48.86831055 -69.40234375 48.26171875 C-70.06741943 47.90037842 -70.73249512 47.53903809 -71.41772461 47.16674805 C-73 46 -73 46 -74 43 C-55.57142857 30 -55.57142857 30 -49 30 C-48.76796875 29.40574219 -48.5359375 28.81148437 -48.296875 28.19921875 C-45.84124959 24.0350106 -41.23337311 22.09079437 -37 20 C-33.375 19.125 -33.375 19.125 -31 19 C-31 18.34 -31 17.68 -31 17 C-30.3915625 16.67128906 -29.783125 16.34257813 -29.15625 16.00390625 C-23.24590421 12.79667449 -17.36406784 9.54088185 -11.5 6.25 C-10.80583984 5.86142822 -10.11167969 5.47285645 -9.39648438 5.07250977 C-0.37770583 0 -0.37770583 0 0 0 Z " fill="#1F89DD" transform="translate(185,100)"/>
<path d="M0 0 C2.57223683 1.30977117 4.93936466 2.65902045 7.375 4.1875 C8.88665741 5.10771222 10.39975989 6.0255535 11.9140625 6.94140625 C13.13464355 7.68221436 13.13464355 7.68221436 14.37988281 8.43798828 C19.11611865 11.26154744 23.9384261 13.9325903 28.75 16.625 C36.95512324 21.23401322 45.05595877 25.95301795 53 31 C52.34 31.33 51.68 31.66 51 32 C48.375 31.0625 48.375 31.0625 46 30 C46 29.34 46 28.68 46 28 C40.25232481 26.75725942 37.66492128 26.97596536 32.5625 29.9921875 C31.50289062 30.61480469 30.44328125 31.23742187 29.3515625 31.87890625 C28.24554688 32.53761719 27.13953125 33.19632813 26 33.875 C24.89398438 34.52597656 23.78796875 35.17695312 22.6484375 35.84765625 C16.75780543 39.31743239 16.75780543 39.31743239 11 43 C10.63441883 46.35503476 10.63441883 46.35503476 10.8125 50.125 C10.83957031 51.40632813 10.86664063 52.68765625 10.89453125 54.0078125 C10.94673828 55.48894531 10.94673828 55.48894531 11 57 C14.3 58.65 17.6 60.3 21 62 C18.03687002 64.38696582 15.05006895 66.72548277 12 69 C12.57032959 69.32274902 13.14065918 69.64549805 13.72827148 69.97802734 C16.30120286 71.43814818 18.86937168 72.90644914 21.4375 74.375 C22.33533203 74.88289063 23.23316406 75.39078125 24.15820312 75.9140625 C25.01220703 76.40390625 25.86621094 76.89375 26.74609375 77.3984375 C27.93223267 78.07398682 27.93223267 78.07398682 29.14233398 78.76318359 C31 80 31 80 32 82 C32.09914121 84.65473959 32.13981339 87.28259677 32.1328125 89.9375 C32.13376923 90.73220703 32.13472595 91.52691406 32.13571167 92.34570312 C32.13639324 94.03369221 32.13454054 95.7216839 32.13037109 97.40966797 C32.12507884 99.96197622 32.13028728 102.51410391 32.13671875 105.06640625 C32.13968003 113.1116043 32.03193166 121.00662457 31 129 C32.32 128.67 33.64 128.34 35 128 C35 128.66 35 129.32 35 130 C33.9378125 130.51949219 32.875625 131.03898438 31.78125 131.57421875 C21.07709124 136.74113597 21.07709124 136.74113597 11 143 C11 143.66 11 144.32 11 145 C10.34 145 9.68 145 9 145 C8.83125405 141.77093849 8.66537263 138.54173589 8.5 135.3125 C8.45230469 134.40048828 8.40460938 133.48847656 8.35546875 132.54882812 C8.31035156 131.66259766 8.26523438 130.77636719 8.21875 129.86328125 C8.17685547 129.05157471 8.13496094 128.23986816 8.09179688 127.40356445 C8.0266959 125.69899233 8.0298574 123.99120101 8.08032227 122.28613281 C8.26305762 119.916837 8.26305762 119.916837 6.49609375 118.55859375 C5.81675781 118.18863281 5.13742188 117.81867188 4.4375 117.4375 C3.71433594 117.03015625 2.99117187 116.6228125 2.24609375 116.203125 C1.50488281 115.80609375 0.76367188 115.4090625 0 115 C-1.33473307 114.23159292 -2.66819975 113.46097908 -4 112.6875 C-4.99 112.130625 -5.98 111.57375 -7 111 C-7 110.67 -7 110.34 -7 110 C-5.35 110 -3.7 110 -2 110 C-2 107.03 -2 104.06 -2 101 C3.31903642 102.49938192 7.63272236 104.96776498 12.3125 107.8125 C18.15278835 111.3251757 24.03708298 114.68726832 30 118 C30 106.45 30 94.9 30 83 C24.13966032 85.49866387 24.13966032 85.49866387 18.5546875 88.375 C17.78769531 88.80296875 17.02070312 89.2309375 16.23046875 89.671875 C15.45316406 90.11015625 14.67585938 90.5484375 13.875 91 C12.69744141 91.65742188 12.69744141 91.65742188 11.49609375 92.328125 C8.31836305 94.10722549 5.16790919 95.89612018 2.0703125 97.8125 C0 99 0 99 -2 99 C-2.495 92.565 -2.495 92.565 -3 86 C1.3785374 87.75141496 4.97072742 89.62983966 9 92 C8.75552124 90.81736572 8.75552124 90.81736572 8.50610352 89.61083984 C7.87669148 85.12024457 7.87601955 80.75427304 7.90234375 76.2265625 C7.9037587 75.3028183 7.90517365 74.3790741 7.90663147 73.42733765 C7.91220391 70.49319138 7.92475131 67.55912299 7.9375 64.625 C7.94251856 62.62890736 7.94708085 60.63281351 7.95117188 58.63671875 C7.96131103 53.75775876 7.98089178 48.87896599 8 44 C2.72 41.03 -2.56 38.06 -8 35 C-6 34 -6 34 -2 35 C-2 24.77 -2 14.54 -2 4 C-2.99 4 -3.98 4 -5 4 C-5.33 4.66 -5.66 5.32 -6 6 C-8.31 6 -10.62 6 -13 6 C-9.29028987 1.89979407 -5.64725271 -0.69407575 0 0 Z " fill="#8DCBFC" transform="translate(101,0)"/>
<path d="M0 0 C0.99 0 1.98 0 3 0 C3 10.23 3 20.46 3 31 C-5 30 -5 30 -8 29 C-10.06365841 29.75374473 -10.06365841 29.75374473 -12.1953125 31.01953125 C-12.99324219 31.46490234 -13.79117188 31.91027344 -14.61328125 32.36914062 C-15.44214844 32.84544922 -16.27101563 33.32175781 -17.125 33.8125 C-17.96160156 34.27720703 -18.79820313 34.74191406 -19.66015625 35.22070312 C-24.03670173 37.39242932 -24.03670173 37.39242932 -27 41 C-26.29230469 41.27070312 -25.58460937 41.54140625 -24.85546875 41.8203125 C-21.91536902 43.03496382 -19.12699048 44.39288086 -16.3125 45.875 C-15.35988281 46.36742187 -14.40726563 46.85984375 -13.42578125 47.3671875 C-10.72928614 49.18221964 -10.13417049 50.01608593 -9 53 C-8.77294922 55.74902344 -8.77294922 55.74902344 -8.8046875 58.859375 C-8.81113281 59.97441406 -8.81757812 61.08945313 -8.82421875 62.23828125 C-8.84097656 63.39714844 -8.85773438 64.55601563 -8.875 65.75 C-8.88402344 66.92433594 -8.89304688 68.09867187 -8.90234375 69.30859375 C-8.92589937 72.20593536 -8.95879348 75.10286441 -9 78 C-7.35 78.66 -5.7 79.32 -4 80 C-4 80.99 -4 81.98 -4 83 C-5.32 83 -6.64 83 -8 83 C-8 83.66 -8 84.32 -8 85 C-7.0925 84.835 -6.185 84.67 -5.25 84.5 C-2 84 -2 84 2 84 C2 87.63 2 91.26 2 95 C-1.33333333 93.66666667 -4.66666667 92.33333333 -8 91 C-8 90.34 -8 89.68 -8 89 C-9.051875 88.731875 -10.10375 88.46375 -11.1875 88.1875 C-14.59072912 87.12747781 -17.13158918 86.08611696 -20 84 C-20 83.34 -20 82.68 -20 82 C-21.36125 81.5978125 -21.36125 81.5978125 -22.75 81.1875 C-27.745448 79.36224015 -27.745448 79.36224015 -30 77 C-30.42617761 74.225843 -30.60482286 71.82991911 -30.609375 69.05078125 C-30.63417938 67.89185616 -30.63417938 67.89185616 -30.65948486 66.70951843 C-30.70803858 64.24376538 -30.72935088 61.77862928 -30.75 59.3125 C-30.77815372 57.63994279 -30.80808031 55.96741442 -30.83984375 54.29492188 C-30.91379881 50.19666538 -30.96332778 46.09875284 -31 42 C-31.75925781 42.44472656 -32.51851562 42.88945313 -33.30078125 43.34765625 C-34.29464844 43.91355469 -35.28851563 44.47945312 -36.3125 45.0625 C-37.29863281 45.63097656 -38.28476562 46.19945312 -39.30078125 46.78515625 C-42 48 -42 48 -45 47 C-43.02 46.505 -43.02 46.505 -41 46 C-41 38.74 -41 31.48 -41 24 C-42.65 24 -44.3 24 -46 24 C-43.3565554 20.97626222 -40.23454176 19.27559523 -36.7578125 17.3125 C-36.15242645 16.96872314 -35.54704041 16.62494629 -34.92330933 16.27075195 C-32.99310651 15.17589227 -31.05920128 14.08777746 -29.125 13 C-27.19880054 11.91075422 -25.27337752 10.82014712 -23.34811401 9.72924805 C-21.59677155 8.73785746 -19.84359955 7.7497009 -18.09033203 6.76171875 C-16.12286051 5.64011388 -14.17180899 4.48881991 -12.24462891 3.29931641 C-9.77185133 1.86793482 -8.07963511 1.55541298 -5.25 1.375 C-2.32707405 1.38090014 -2.32707405 1.38090014 0 0 Z " fill="#52B0FB" transform="translate(96,4)"/>
<path d="M0 0 C3.37646332 1.26988252 6.3744487 2.72452796 9.4375 4.625 C14.32491056 7.61338657 19.27952643 10.46412314 24.26538086 13.28369141 C26.90770412 14.78283432 29.47047441 16.31364961 32 18 C32.29296875 20.8203125 32.29296875 20.8203125 32.1875 24.125 C32.14689453 25.76855469 32.14689453 25.76855469 32.10546875 27.4453125 C32.07066406 28.28835937 32.03585938 29.13140625 32 30 C32.9075 30.268125 33.815 30.53625 34.75 30.8125 C37.72991834 31.90131632 39.68590359 32.86391101 42 35 C42 35.66 42 36.32 42 37 C42.99 37.495 42.99 37.495 44 38 C43.67 49.88 43.34 61.76 43 74 C39.76964859 73.19241215 37.89407522 72.5280592 35.109375 70.93359375 C34.40039062 70.53076172 33.69140625 70.12792969 32.9609375 69.71289062 C32.23132812 69.29201172 31.50171875 68.87113281 30.75 68.4375 C29.63238281 67.80038086 29.63238281 67.80038086 28.4921875 67.15039062 C26.65901039 66.10453958 24.82917323 65.05283808 23 64 C23 63.01 23 62.02 23 61 C21.515 60.505 21.515 60.505 20 60 C20 59.34 20 58.68 20 58 C19.39671875 57.80664062 18.7934375 57.61328125 18.171875 57.4140625 C17.37265625 57.15367187 16.5734375 56.89328125 15.75 56.625 C14.56664062 56.24214844 14.56664062 56.24214844 13.359375 55.8515625 C11.13372042 55.04826333 9.09068328 54.10288338 7 53 C7 52.34 7 51.68 7 51 C6.401875 50.855625 5.80375 50.71125 5.1875 50.5625 C3.43849596 50.1127561 1.71322977 49.57107659 0 49 C-0.04254356 47.00045254 -0.04080783 44.99958364 0 43 C0.495 42.505 0.495 42.505 1 42 C1.1002001 39.82868278 1.13081297 37.6540958 1.1328125 35.48046875 C1.13376923 34.82548904 1.13472595 34.17050934 1.13571167 33.49568176 C1.13639355 32.1060883 1.13453873 30.71649168 1.13037109 29.3269043 C1.12504844 27.20679476 1.13030242 25.08689956 1.13671875 22.96679688 C1.13605747 21.61718703 1.13477527 20.26757733 1.1328125 18.91796875 C1.13168457 17.68844482 1.13055664 16.4589209 1.12939453 15.19213867 C1.02294153 12.56596311 0.73017771 10.49563928 0 8 C-0.12205329 5.32459184 -0.04467313 2.68038762 0 0 Z " fill="#155B95" transform="translate(13,101)"/>
<path d="M0 0 C0.66 0 1.32 0 2 0 C2 33.66 2 67.32 2 102 C1.67 102 1.34 102 1 102 C0.67 85.5 0.34 69 0 52 C-13.689317 59.69367865 -13.689317 59.69367865 -27 68 C-27.99 68 -28.98 68 -30 68 C-30 68.66 -30 69.32 -30 70 C-31.98 70.495 -31.98 70.495 -34 71 C-33.505 70.01 -33.505 70.01 -33 69 C-32.90496308 67.43784063 -32.8720533 65.87168753 -32.87060547 64.30664062 C-32.86745331 63.33223022 -32.86430115 62.35781982 -32.86105347 61.35388184 C-32.8630777 60.29866333 -32.86510193 59.24344482 -32.8671875 58.15625 C-32.86623077 57.07621704 -32.86527405 55.99618408 -32.86428833 54.88342285 C-32.86360696 52.59692324 -32.86545822 50.31042169 -32.86962891 48.02392578 C-32.87497774 44.51460444 -32.86968242 41.00541109 -32.86328125 37.49609375 C-32.86394204 35.27864555 -32.86522322 33.06119743 -32.8671875 30.84375 C-32.86516327 29.78853149 -32.86313904 28.73331299 -32.86105347 27.64611816 C-32.86420563 26.67170776 -32.86735779 25.69729736 -32.87060547 24.69335938 C-32.87140106 23.83335327 -32.87219666 22.97334717 -32.87301636 22.08728027 C-32.86676641 19.93973841 -32.86676641 19.93973841 -34 18 C-32.78957031 17.89945313 -32.78957031 17.89945313 -31.5546875 17.796875 C-26.87774713 16.74841804 -23.25016583 14.63281699 -19.125 12.25 C-18.36058594 11.81945313 -17.59617188 11.38890625 -16.80859375 10.9453125 C-12.32144289 8.40081608 -7.94136777 5.73320948 -3.62451172 2.90917969 C-2 2 -2 2 0 2 C0 1.34 0 0.68 0 0 Z " fill="#95D0FC" transform="translate(184,49)"/>
<path d="M0 0 C5 2 5 2 6.39453125 3.4140625 C8.77324995 5.76384301 11.70057589 6.96142538 14.6875 8.375 C19.25397424 10.59596172 23.67183154 12.88240857 27.9140625 15.6796875 C31.71782969 18.08731542 35.70773627 20.19160821 39.65625 22.3515625 C40.81640625 23.16753906 40.81640625 23.16753906 42 24 C42 24.99 42 25.98 42 27 C41.20416504 27.4532666 40.40833008 27.9065332 39.58837891 28.37353516 C36.58721093 30.08356885 33.58663258 31.79462857 30.58642578 33.50634766 C29.29694081 34.24177461 28.00723366 34.97681216 26.71728516 35.71142578 C24.84476628 36.77790312 22.9730945 37.84585445 21.1015625 38.9140625 C20.49040588 39.26180725 19.87924927 39.609552 19.24957275 39.96783447 C14.7783308 42.52259359 10.39723466 45.20018484 6.06396484 47.98193359 C4 49 4 49 0 49 C0 32.83 0 16.66 0 0 Z " fill="#145A94" transform="translate(142,125)"/>
<path d="M0 0 C0 0.66 0 1.32 0 2 C-1.98 2.99 -1.98 2.99 -4 4 C-4 19.84 -4 35.68 -4 52 C1.28 49.03 6.56 46.06 12 43 C14.619375 42.01 17.23875 41.02 19.9375 40 C23.60506129 38.06000017 23.60506129 38.06000017 26 35 C28.00898726 26.87886421 27.49848057 18.28933986 27 10 C27.33 10 27.66 10 28 10 C28 34.75 28 59.5 28 85 C27.67 85 27.34 85 27 85 C27 81.04 27 77.08 27 73 C25.35 72.34 23.7 71.68 22 71 C19.55701888 69.59335137 17.14924065 68.16444539 14.75 66.6875 C9.79916003 63.67439127 4.83395054 60.72998488 -0.265625 57.97265625 C-1.89090767 57.06118016 -3.44954121 56.03363919 -5 55 C-4.85852539 55.68860107 -4.71705078 56.37720215 -4.57128906 57.08666992 C-2.98218475 65.54117962 -2.69885955 73.72516684 -2.75 82.3125 C-2.74226562 83.63056641 -2.73453125 84.94863281 -2.7265625 86.30664062 C-2.73042969 88.22186523 -2.73042969 88.22186523 -2.734375 90.17578125 C-2.73663086 91.31958252 -2.73888672 92.46338379 -2.74121094 93.6418457 C-3.02950745 97.38290094 -3.8596551 100.43599753 -5 104 C-4.401875 104.144375 -3.80375 104.28875 -3.1875 104.4375 C-1.43849596 104.8872439 0.28677023 105.42892341 2 106 C2 106.66 2 107.32 2 108 C2.84884766 108.18949219 2.84884766 108.18949219 3.71484375 108.3828125 C6.11375061 109.03072239 8.2858516 109.88113319 10.5625 110.875 C11.70912109 111.36613281 11.70912109 111.36613281 12.87890625 111.8671875 C15.04281745 113.02286752 16.44875437 114.10678648 18 116 C18 116.66 18 117.32 18 118 C13.3067406 116.63378723 9.55942383 114.67580944 5.4375 112.0625 C4.34308594 111.37285156 3.24867187 110.68320313 2.12109375 109.97265625 C1.09113281 109.32167969 0.06117187 108.67070312 -1 108 C-1.87278595 107.57686523 -2.7455719 107.15373047 -3.64480591 106.71777344 C-6 105 -6 105 -6.70236206 102.55541992 C-6.73596832 101.56131104 -6.76957458 100.56720215 -6.80419922 99.54296875 C-6.85042419 98.37556152 -6.89664917 97.2081543 -6.9442749 96.00537109 C-6.96608653 94.67029635 -6.98448924 93.33516281 -7 92 C-7.01272194 91.28749084 -7.02544388 90.57498169 -7.03855133 89.84088135 C-7.13739261 83.99788583 -7.14028353 78.15617188 -7.1328125 72.3125 C-7.1334876 70.43733711 -7.13445934 68.56217431 -7.13571167 66.68701172 C-7.13717604 62.78400833 -7.13507301 58.88102802 -7.13037109 54.97802734 C-7.12464271 49.98032318 -7.12798033 44.98267236 -7.13394356 39.98497009 C-7.13755633 36.12452797 -7.13640782 32.26409851 -7.13381577 28.40365601 C-7.13315012 26.56008905 -7.13396222 24.71652093 -7.13629532 22.87295532 C-7.13883707 20.30329324 -7.13496116 17.73371811 -7.12939453 15.1640625 C-7.13141876 14.40764969 -7.13344299 13.65123688 -7.13552856 12.87190247 C-7.12056778 9.14054989 -7.06355694 5.59450161 -6 2 C-3.84898936 0.54286376 -2.59713506 0 0 0 Z " fill="#4FAFFD" transform="translate(18,46)"/>
<path d="M0 0 C0 0.66 0 1.32 0 2 C-0.99 2 -1.98 2 -3 2 C-3 3.65 -3 5.3 -3 7 C-0.77567782 8.32134971 1.45383619 9.63211206 3.6875 10.9375 C4.31333984 11.31068359 4.93917969 11.68386719 5.58398438 12.06835938 C9.04444449 14.07941211 11.95510676 15.51275665 16 16 C12.44727488 18.97599735 8.83119572 21.38304729 4.80859375 23.6796875 C4.22263931 24.01493439 3.63668488 24.35018127 3.03297424 24.69558716 C1.79620065 25.40184303 0.55821668 26.10598312 -0.6809082 26.80810547 C-2.53597309 27.85995879 -4.38639298 28.91962535 -6.23632812 29.98046875 C-13.70743991 34.24528924 -21.25691442 38.24496507 -29 42 C-29.02505615 40.92516357 -29.0501123 39.85032715 -29.07592773 38.74291992 C-29.17007495 34.75646978 -29.27027785 30.77019091 -29.37231445 26.78393555 C-29.41563562 25.05839035 -29.45731273 23.33280307 -29.49731445 21.60717773 C-29.55508526 19.12731236 -29.61876003 16.64765828 -29.68359375 14.16796875 C-29.70030624 13.39599655 -29.71701874 12.62402435 -29.73423767 11.82865906 C-29.82227895 8.64817067 -29.98745195 6.03764416 -31 3 C-28.20124258 4.07011313 -25.66799721 5.190725 -23.0625 6.6875 C-19.33712811 8.28408795 -17.89332847 7.97927432 -14 7 C-10.81837522 5.40150559 -10.81837522 5.40150559 -7.75 3.4375 C-2.18913481 0 -2.18913481 0 0 0 Z " fill="#91CDFB" transform="translate(128,158)"/>
<path d="M0 0 C0.99 0 1.98 0 3 0 C3 10.23 3 20.46 3 31 C-5 30 -5 30 -8 29 C-10.72640779 30.24592209 -10.72640779 30.24592209 -13.5625 32 C-15.34151193 33.05842941 -17.14906004 34.07308171 -19 35 C-21 34 -21 34 -22.20703125 32.703125 C-24.76220667 30.27598669 -27.6758039 28.54229524 -30.6875 26.75 C-31.27466797 26.37359375 -31.86183594 25.9971875 -32.46679688 25.609375 C-37.36531154 22.70971017 -40.45558596 22.85077195 -46 24 C-43.3565554 20.97626222 -40.23454176 19.27559523 -36.7578125 17.3125 C-36.15242645 16.96872314 -35.54704041 16.62494629 -34.92330933 16.27075195 C-32.99310651 15.17589227 -31.05920128 14.08777746 -29.125 13 C-27.19880054 11.91075422 -25.27337752 10.82014712 -23.34811401 9.72924805 C-21.59677155 8.73785746 -19.84359955 7.7497009 -18.09033203 6.76171875 C-16.12286051 5.64011388 -14.17180899 4.48881991 -12.24462891 3.29931641 C-9.77185133 1.86793482 -8.07963511 1.55541298 -5.25 1.375 C-2.32707405 1.38090014 -2.32707405 1.38090014 0 0 Z " fill="#55B1FB" transform="translate(96,4)"/>
<path d="M0 0 C0 7.26 0 14.52 0 22 C-0.99 22.33 -1.98 22.66 -3 23 C-3.495 24.485 -3.495 24.485 -4 26 C-7.0625 27.1875 -7.0625 27.1875 -10 28 C-10 31.96 -10 35.92 -10 40 C-14.85309537 39.02938093 -17.97928132 37.43929707 -22.0625 34.875 C-23.38760546 34.06052174 -24.71313275 33.24672942 -26.0390625 32.43359375 C-26.69938477 32.02608887 -27.35970703 31.61858398 -28.04003906 31.19873047 C-30.98057691 29.40026998 -33.95677755 27.66858465 -36.9375 25.9375 C-37.91589844 25.36902344 -38.89429688 24.80054687 -39.90234375 24.21484375 C-40.94068359 23.61349609 -40.94068359 23.61349609 -42 23 C-41.01 21.515 -41.01 21.515 -40 20 C-39.01 20 -38.02 20 -37 20 C-37 19.01 -37 18.02 -37 17 C-36.00742187 16.443125 -35.01484375 15.88625 -33.9921875 15.3125 C-32.61978836 14.54167255 -31.2473928 13.77083874 -29.875 13 C-29.15666992 12.59716797 -28.43833984 12.19433594 -27.69824219 11.77929688 C-24.10552312 9.76105733 -20.5217663 7.73031373 -16.9609375 5.65625 C-16.33461426 5.29273438 -15.70829102 4.92921875 -15.06298828 4.5546875 C-13.33676731 3.550476 -11.61361184 2.54100043 -9.890625 1.53125 C-5.96088226 -0.55045156 -4.26054649 -1.42018216 0 0 Z " fill="#165B94" transform="translate(55,28)"/>
<path d="M0 0 C3.37646332 1.26988252 6.3744487 2.72452796 9.4375 4.625 C14.32491056 7.61338657 19.27952643 10.46412314 24.26538086 13.28369141 C26.90770412 14.78283432 29.47047441 16.31364961 32 18 C32.46875 20.71484375 32.46875 20.71484375 32.5 23.9375 C32.5309375 24.99839844 32.561875 26.05929688 32.59375 27.15234375 C32 30 32 30 29.91015625 31.609375 C28.94980469 32.06828125 27.98945312 32.5271875 27 33 C25.89527344 33.67675781 24.79054688 34.35351562 23.65234375 35.05078125 C15.93013492 39.76374474 8.17954747 44.11585734 0 48 C-0.042721 46.33388095 -0.04063832 44.66617115 0 43 C0.495 42.505 0.495 42.505 1 42 C1.1002001 39.82868278 1.13081297 37.6540958 1.1328125 35.48046875 C1.13376923 34.82548904 1.13472595 34.17050934 1.13571167 33.49568176 C1.13639355 32.1060883 1.13453873 30.71649168 1.13037109 29.3269043 C1.12504844 27.20679476 1.13030242 25.08689956 1.13671875 22.96679688 C1.13605747 21.61718703 1.13477527 20.26757733 1.1328125 18.91796875 C1.13168457 17.68844482 1.13055664 16.4589209 1.12939453 15.19213867 C1.02294153 12.56596311 0.73017771 10.49563928 0 8 C-0.12205329 5.32459184 -0.04467313 2.68038762 0 0 Z " fill="#1E89DE" transform="translate(13,101)"/>
<path d="M0 0 C0 11.88 0 23.76 0 36 C-6 35 -6 35 -8.4375 33.6875 C-11.24295705 32.61177868 -11.24295705 32.61177868 -14.375 34.9375 C-14.96925781 35.31777344 -15.56351563 35.69804688 -16.17578125 36.08984375 C-19.35435757 37.67572872 -21.69610672 36.96113259 -25 36 C-28.4375 34.8125 -28.4375 34.8125 -31 32 C-32.05717256 27.1285969 -32.08757736 22.86847459 -31 18 C-28.61895876 14.85702557 -25.51950161 13.65145845 -22 12 C-19.94941777 10.86810369 -17.9197989 9.70278289 -15.88867188 8.53637695 C-13.82612503 7.35606333 -11.75182807 6.20008215 -9.671875 5.05078125 C-7.44229023 3.81675058 -5.25939215 2.55147679 -3.078125 1.23046875 C-1 0 -1 0 0 0 Z " fill="#208BDE" transform="translate(142,25)"/>
<path d="M0 0 C0.51949219 0.27714844 1.03898437 0.55429688 1.57421875 0.83984375 C2.62029297 1.38318359 2.62029297 1.38318359 3.6875 1.9375 C4.37199219 2.29714844 5.05648437 2.65679687 5.76171875 3.02734375 C10.59614874 5.12816935 13.53404454 5.09076551 18.5 3.375 C23.63265789 1.85931579 23.63265789 1.85931579 26.9375 3.125 C27.9584375 4.053125 27.9584375 4.053125 29 5 C29.68707031 5.4125 30.37414062 5.825 31.08203125 6.25 C33 8 33 8 33.671875 10.7421875 C33.69765625 11.77601563 33.7234375 12.80984375 33.75 13.875 C33.80671875 14.90367187 33.8634375 15.93234375 33.921875 16.9921875 C32.48352843 21.68509791 29.16368677 22.76333599 25 25 C23.15466993 26.10371123 21.31373652 27.21479664 19.4765625 28.33203125 C17.52669776 29.49328986 15.57616632 30.65342967 13.625 31.8125 C12.13033203 32.7087207 12.13033203 32.7087207 10.60546875 33.62304688 C9.65542969 34.18701172 8.70539062 34.75097656 7.7265625 35.33203125 C6.86627441 35.84483643 6.00598633 36.3576416 5.11962891 36.88598633 C3 38 3 38 1 38 C1.00523682 36.95545654 1.01047363 35.91091309 1.01586914 34.8347168 C1.03396598 30.96021379 1.04544918 27.08571452 1.05493164 23.21118164 C1.05996113 21.53409192 1.06678548 19.85700658 1.07543945 18.17993164 C1.08756559 15.769683 1.09324215 13.35949232 1.09765625 10.94921875 C1.10281754 10.19912033 1.10797882 9.44902191 1.11329651 8.67619324 C1.11363785 5.51048768 1.00887343 3.02662028 0 0 Z " fill="#1D8AE0" transform="translate(55,136)"/>
<path d="M0 0 C0 11.55 0 23.1 0 35 C-6.75157081 32.7494764 -6.75157081 32.7494764 -10.0234375 30.79296875 C-10.735 30.37080078 -11.4465625 29.94863281 -12.1796875 29.51367188 C-12.90414062 29.07603516 -13.62859375 28.63839844 -14.375 28.1875 C-15.09171875 27.76146484 -15.8084375 27.33542969 -16.546875 26.89648438 C-21.40634231 23.99747003 -26.21236593 21.01590246 -31 18 C-29.71932877 14.1579863 -28.46975951 13.85338387 -24.9765625 11.93359375 C-23.955625 11.36576172 -22.9346875 10.79792969 -21.8828125 10.21289062 C-20.80773437 9.62701172 -19.73265625 9.04113281 -18.625 8.4375 C-16.51258734 7.27031547 -14.40058949 6.10237978 -12.2890625 4.93359375 C-10.87681396 4.1610022 -10.87681396 4.1610022 -9.43603516 3.37280273 C-3.4510048 0 -3.4510048 0 0 0 Z " fill="#1F8ADE" transform="translate(131,83)"/>
<path d="M0 0 C0.99 0 1.98 0 3 0 C3 0.66 3 1.32 3 2 C3.66 2.2475 4.32 2.495 5 2.75 C11.76304604 5.56793585 18.13802686 9.13310046 24.5 12.75 C25.22703125 13.16121094 25.9540625 13.57242188 26.703125 13.99609375 C28.46974952 14.9956313 30.23502065 15.99756027 32 17 C28.3904487 21.21439504 23.9441171 23.43084226 19.125 26 C17.54293195 26.85168427 15.96217439 27.70580786 14.3828125 28.5625 C13.63161133 28.96984375 12.88041016 29.3771875 12.10644531 29.796875 C10.1991745 30.88623877 8.41382062 32.05186058 6.6171875 33.3125 C4 35 4 35 1 35 C0.67 35.66 0.34 36.32 0 37 C0 24.79 0 12.58 0 0 Z " fill="#51AFFC" transform="translate(153,82)"/>
<path d="M0 0 C4.32421646 1.58444573 8.26442583 3.717804 12.25 6 C12.88679688 6.35578125 13.52359375 6.7115625 14.1796875 7.078125 C18.87881324 9.75762649 18.87881324 9.75762649 20 12 C17.66666667 14.33333333 15.33333333 16.66666667 13 19 C14.05960938 19.40798828 14.05960938 19.40798828 15.140625 19.82421875 C18.08708919 21.03581127 20.91438069 22.36020308 23.75 23.8125 C25.19632813 24.53373047 25.19632813 24.53373047 26.671875 25.26953125 C29 27 29 27 29.828125 29.69921875 C29.88484375 30.45847656 29.9415625 31.21773437 30 32 C24.25 35 24.25 35 22 35 C22 35.66 22 36.32 22 37 C20.37750059 37.83819158 18.75191503 38.6704116 17.125 39.5 C16.22007813 39.9640625 15.31515625 40.428125 14.3828125 40.90625 C12 42 12 42 10 42 C9.67 34.74 9.34 27.48 9 20 C7.246875 21.010625 5.49375 22.02125 3.6875 23.0625 C0.69921875 24.78515625 0.69921875 24.78515625 -2 26 C-2.99 25.67 -3.98 25.34 -5 25 C-3.68 24.67 -2.36 24.34 -1 24 C-1.00523682 23.30849854 -1.01047363 22.61699707 -1.01586914 21.90454102 C-1.036575 18.79053648 -1.04963963 15.67654639 -1.0625 12.5625 C-1.07087891 11.47388672 -1.07925781 10.38527344 -1.08789062 9.26367188 C-1.09111328 8.22919922 -1.09433594 7.19472656 -1.09765625 6.12890625 C-1.10289307 5.17056885 -1.10812988 4.21223145 -1.11352539 3.22485352 C-1 1 -1 1 0 0 Z " fill="#1D8ADE" transform="translate(56,26)"/>
<path d="M0 0 C0 0.66 0 1.32 0 2 C-1.98 2.99 -1.98 2.99 -4 4 C-4.02318164 11.623554 -4.0409448 19.24710434 -4.05181217 26.87068558 C-4.05702825 30.41071061 -4.06410276 33.95071151 -4.07543945 37.49072266 C-4.08839423 41.56152578 -4.09323876 45.63230359 -4.09765625 49.703125 C-4.10281754 50.97303284 -4.10797882 52.24294067 -4.11329651 53.55133057 C-4.11337204 54.73225281 -4.11344757 55.91317505 -4.11352539 57.12988281 C-4.115746 58.16912903 -4.11796661 59.20837524 -4.12025452 60.27911377 C-4.01302906 62.70520366 -3.63900895 64.67470126 -3 67 C-2.80094544 71.2437095 -2.814194 75.48655727 -2.81469727 79.73461914 C-2.81251819 81.79529711 -2.79436287 83.85543276 -2.77539062 85.91601562 C-2.77345703 87.22892578 -2.77152344 88.54183594 -2.76953125 89.89453125 C-2.76542236 91.08925049 -2.76131348 92.28396973 -2.75708008 93.51489258 C-3.02283826 97.32765438 -3.83108066 100.37568407 -5 104 C-4.401875 104.144375 -3.80375 104.28875 -3.1875 104.4375 C-1.43849596 104.8872439 0.28677023 105.42892341 2 106 C2 106.66 2 107.32 2 108 C2.84884766 108.18949219 2.84884766 108.18949219 3.71484375 108.3828125 C6.11375061 109.03072239 8.2858516 109.88113319 10.5625 110.875 C11.70912109 111.36613281 11.70912109 111.36613281 12.87890625 111.8671875 C15.04281745 113.02286752 16.44875437 114.10678648 18 116 C18 116.66 18 117.32 18 118 C13.3067406 116.63378723 9.55942383 114.67580944 5.4375 112.0625 C4.34308594 111.37285156 3.24867187 110.68320313 2.12109375 109.97265625 C1.09113281 109.32167969 0.06117187 108.67070312 -1 108 C-1.87278595 107.57686523 -2.7455719 107.15373047 -3.64480591 106.71777344 C-6 105 -6 105 -6.70236206 102.55541992 C-6.73596832 101.56131104 -6.76957458 100.56720215 -6.80419922 99.54296875 C-6.85042419 98.37556152 -6.89664917 97.2081543 -6.9442749 96.00537109 C-6.96608653 94.67029635 -6.98448924 93.33516281 -7 92 C-7.01272194 91.28749084 -7.02544388 90.57498169 -7.03855133 89.84088135 C-7.13739261 83.99788583 -7.14028353 78.15617188 -7.1328125 72.3125 C-7.1334876 70.43733711 -7.13445934 68.56217431 -7.13571167 66.68701172 C-7.13717604 62.78400833 -7.13507301 58.88102802 -7.13037109 54.97802734 C-7.12464271 49.98032318 -7.12798033 44.98267236 -7.13394356 39.98497009 C-7.13755633 36.12452797 -7.13640782 32.26409851 -7.13381577 28.40365601 C-7.13315012 26.56008905 -7.13396222 24.71652093 -7.13629532 22.87295532 C-7.13883707 20.30329324 -7.13496116 17.73371811 -7.12939453 15.1640625 C-7.13141876 14.40764969 -7.13344299 13.65123688 -7.13552856 12.87190247 C-7.12056778 9.14054989 -7.06355694 5.59450161 -6 2 C-3.84898936 0.54286376 -2.59713506 0 0 0 Z " fill="#7AB0DC" transform="translate(18,46)"/>
<path d="M0 0 C4.32421646 1.58444573 8.26442583 3.717804 12.25 6 C12.88679688 6.35578125 13.52359375 6.7115625 14.1796875 7.078125 C18.87881324 9.75762649 18.87881324 9.75762649 20 12 C19.67 12.66 19.34 13.32 19 14 C16.03 13.505 16.03 13.505 13 13 C12.93167969 13.58523437 12.86335938 14.17046875 12.79296875 14.7734375 C11.17203754 19.32482069 5.98552074 21.61349663 2 24 C-1.625 25.4375 -1.625 25.4375 -4 26 C-4.33 25.34 -4.66 24.68 -5 24 C-3.68 24 -2.36 24 -1 24 C-1.00523682 23.30849854 -1.01047363 22.61699707 -1.01586914 21.90454102 C-1.036575 18.79053648 -1.04963963 15.67654639 -1.0625 12.5625 C-1.07087891 11.47388672 -1.07925781 10.38527344 -1.08789062 9.26367188 C-1.09111328 8.22919922 -1.09433594 7.19472656 -1.09765625 6.12890625 C-1.10289307 5.17056885 -1.10812988 4.21223145 -1.11352539 3.22485352 C-1 1 -1 1 0 0 Z " fill="#1F8BDF" transform="translate(56,26)"/>
<path d="M0 0 C0 5.28 0 10.56 0 16 C-8.99270073 16 -8.99270073 16 -12.25 14.125 C-12.87390625 13.77695313 -13.4978125 13.42890625 -14.140625 13.0703125 C-14.75421875 12.71710938 -15.3678125 12.36390625 -16 12 C-17.32959344 11.32590542 -18.66196391 10.65717702 -20 10 C-6.85714286 0 -6.85714286 0 0 0 Z " fill="#53AFFB" transform="translate(87,108)"/>
<path d="M0 0 C3 1 3 1 4 3 C4.05837261 4.68262232 4.06121376 6.36734837 4.03515625 8.05078125 C4.04385742 9.56381836 4.04385742 9.56381836 4.05273438 11.10742188 C4.05920937 13.23251413 4.03866836 15.35787176 3.99023438 17.48242188 C3.90680019 23.18323595 3.90680019 23.18323595 6.80810547 27.77490234 C8.9526856 29.13476378 8.9526856 29.13476378 11.18530273 30.12182617 C13 31 13 31 14 33 C14.93181281 40.79616717 15.20421343 48.23951347 14 56 C11.75 56.3125 11.75 56.3125 9 56 C6.6875 53.5 6.6875 53.5 5 51 C10.75 47 10.75 47 13 47 C12.67 42.71 12.34 38.42 12 34 C10.35 34.66 8.7 35.32 7 36 C4.1875 36.125 4.1875 36.125 2 36 C2.33 35.01 2.66 34.02 3 33 C4.32 33 5.64 33 7 33 C7 32.01 7 31.02 7 30 C4.525 29.01 4.525 29.01 2 28 C1.97494385 27.25838623 1.9498877 26.51677246 1.92407227 25.75268555 C1.80813868 22.39744672 1.68540015 19.04249056 1.5625 15.6875 C1.52318359 14.52025391 1.48386719 13.35300781 1.44335938 12.15039062 C1.40146484 11.03212891 1.35957031 9.91386719 1.31640625 8.76171875 C1.27974854 7.73006592 1.24309082 6.69841309 1.20532227 5.63549805 C1.09838758 2.89251742 1.09838758 2.89251742 0 0 Z " fill="#5DB1F3" transform="translate(85,54)"/>
<path d="M0 0 C0.33 0 0.66 0 1 0 C1 24.75 1 49.5 1 75 C0.67 75 0.34 75 0 75 C0 71.04 0 67.08 0 63 C-0.99 62.67 -1.98 62.34 -3 62 C-3 50.12 -3 38.24 -3 26 C-2.34 25.67 -1.68 25.34 -1 25 C-0.67 16.75 -0.34 8.5 0 0 Z " fill="#A1D6F0" transform="translate(45,56)"/>
<path d="M0 0 C0.33 0 0.66 0 1 0 C1.33 1.65 1.66 3.3 2 5 C2.99 5.33 3.98 5.66 5 6 C5 5.34 5 4.68 5 4 C8.465 3.505 8.465 3.505 12 3 C9.03455808 5.38882821 6.04751801 7.71436149 3 10 C8.94 13.3 14.88 16.6 21 20 C20.01 20.66 19.02 21.32 18 22 C18 21.34 18 20.68 18 20 C16.783125 19.855625 15.56625 19.71125 14.3125 19.5625 C11.17329623 19.17219047 8.0924866 18.67648144 5 18 C5.66 17.34 6.32 16.68 7 16 C5.02 15.01 3.04 14.02 1 13 C1 17.62 1 22.24 1 27 C0.34 27 -0.32 27 -1 27 C-1.02721831 23.9999376 -1.04694378 21.00012744 -1.0625 18 C-1.07087891 17.16082031 -1.07925781 16.32164063 -1.08789062 15.45703125 C-1.10824033 10.20680661 -0.76368207 5.19544338 0 0 Z " fill="#BADAF1" transform="translate(110,59)"/>
<path d="M0 0 C0.99 0 1.98 0 3 0 C3 0.66 3 1.32 3 2 C3.66 2 4.32 2 5 2 C6 5 6 5 5.0625 7.1875 C4.711875 7.785625 4.36125 8.38375 4 9 C4.99 10.485 4.99 10.485 6 12 C6.31884766 14.72729492 6.31884766 14.72729492 6.4140625 17.98046875 C6.45273438 19.14384766 6.49140625 20.30722656 6.53125 21.50585938 C6.5621875 22.72080078 6.593125 23.93574219 6.625 25.1875 C6.66367188 26.41404297 6.70234375 27.64058594 6.7421875 28.90429688 C6.83656103 31.93604656 6.92214549 34.96778841 7 38 C6.34 38 5.68 38 5 38 C4.83125405 34.77093849 4.66537263 31.54173589 4.5 28.3125 C4.45230469 27.40048828 4.40460938 26.48847656 4.35546875 25.54882812 C4.31035156 24.66259766 4.26523438 23.77636719 4.21875 22.86328125 C4.17685547 22.05157471 4.13496094 21.23986816 4.09179688 20.40356445 C4.0266959 18.69899233 4.0298574 16.99120101 4.08032227 15.28613281 C4.26305762 12.916837 4.26305762 12.916837 2.49609375 11.55859375 C1.81675781 11.18863281 1.13742188 10.81867188 0.4375 10.4375 C-0.64724609 9.82648438 -0.64724609 9.82648438 -1.75390625 9.203125 C-2.49511719 8.80609375 -3.23632812 8.4090625 -4 8 C-5.33473307 7.23159292 -6.66819975 6.46097908 -8 5.6875 C-8.99 5.130625 -9.98 4.57375 -11 4 C-11 3.67 -11 3.34 -11 3 C-8.36 3.33 -5.72 3.66 -3 4 C-2.566875 3.34 -2.13375 2.68 -1.6875 2 C-1.130625 1.34 -0.57375 0.68 0 0 Z " fill="#97CEF7" transform="translate(105,107)"/>
<path d="M0 0 C4.875 1.75 4.875 1.75 6 4 C4.35 4.33 2.7 4.66 1 5 C0.7443452 12.08237919 0.7443452 12.08237919 2 19 C2.66 19.33 3.32 19.66 4 20 C4 19.34 4 18.68 4 18 C5.32 18 6.64 18 8 18 C6.78836152 21.63491543 5.89228938 21.95246215 2.625 23.75 C1.83351563 24.19859375 1.04203125 24.6471875 0.2265625 25.109375 C-2 26 -2 26 -5 25 C-3.68 24.67 -2.36 24.34 -1 24 C-1.00523682 23.30849854 -1.01047363 22.61699707 -1.01586914 21.90454102 C-1.036575 18.79053648 -1.04963963 15.67654639 -1.0625 12.5625 C-1.07087891 11.47388672 -1.07925781 10.38527344 -1.08789062 9.26367188 C-1.09111328 8.22919922 -1.09433594 7.19472656 -1.09765625 6.12890625 C-1.10289307 5.17056885 -1.10812988 4.21223145 -1.11352539 3.22485352 C-1 1 -1 1 0 0 Z " fill="#2181CE" transform="translate(56,26)"/>
<path d="M0 0 C4.3785374 1.75141496 7.97072742 3.62983966 12 6 C12 4.02 12 2.04 12 0 C12.33 0 12.66 0 13 0 C13.625 3.125 13.625 3.125 13 7 C9.70773563 9.74951789 5.42493518 13 1 13 C0.67 8.71 0.34 4.42 0 0 Z " fill="#96CFF9" transform="translate(98,86)"/>
<path d="M0 0 C1.32 0 2.64 0 4 0 C4 0.66 4 1.32 4 2 C-5.24 7.28 -14.48 12.56 -24 18 C-24.33 16.68 -24.66 15.36 -25 14 C-18.5 11 -18.5 11 -14 11 C-14 10.34 -14 9.68 -14 9 C-13.34 9 -12.68 9 -12 9 C-12 8.01 -12 7.02 -12 6 C-10.68 5.34 -9.36 4.68 -8 4 C-8 3.67 -8 3.34 -8 3 C-6.865625 2.690625 -5.73125 2.38125 -4.5625 2.0625 C-1.21224901 1.37075469 -1.21224901 1.37075469 0 0 Z " fill="#43749A" transform="translate(180,150)"/>
<path d="M0 0 C0.99 0.33 1.98 0.66 3 1 C3 13.21 3 25.42 3 38 C2.01 37.67 1.02 37.34 0 37 C0.33 25.45 0.66 13.9 1 2 C0.34 1.67 -0.32 1.34 -1 1 C-0.67 0.67 -0.34 0.34 0 0 Z " fill="#90C3E0" transform="translate(130,81)"/>
<path d="M0 0 C2.4375 0.8125 2.4375 0.8125 5 2 C5.33 2.99 5.66 3.98 6 5 C6.66 5.33 7.32 5.66 8 6 C7.67 17.88 7.34 29.76 7 42 C3 41 3 41 1 40 C1 39.34 1 38.68 1 38 C2.32 38.33 3.64 38.66 5 39 C5 29.1 5 19.2 5 9 C4.34 9 3.68 9 3 9 C2.87625 8.195625 2.7525 7.39125 2.625 6.5625 C2.315625 5.2940625 2.315625 5.2940625 2 4 C1.34 3.67 0.68 3.34 0 3 C0 2.01 0 1.02 0 0 Z " fill="#2F7BB8" transform="translate(49,133)"/>
<path d="M0 0 C0.99 0 1.98 0 3 0 C2.90657935 4.94825616 2.8005124 9.89601634 2.68261719 14.84375 C2.64428896 16.52759329 2.60944288 18.21151955 2.578125 19.89550781 C2.53255713 22.31345306 2.47455077 24.73082528 2.4140625 27.1484375 C2.40251129 27.9036972 2.39096008 28.65895691 2.37905884 29.43710327 C2.22774341 34.77225659 2.22774341 34.77225659 0 37 C0 24.79 0 12.58 0 0 Z " fill="#6AB0E1" transform="translate(153,82)"/>
<path d="M0 0 C3 1 3 1 4 3 C4.0819764 4.69369428 4.10826689 6.39026282 4.10546875 8.0859375 C4.12029297 9.09914063 4.13511719 10.11234375 4.15039062 11.15625 C4.17503857 13.2941351 4.18039079 15.43233365 4.16601562 17.5703125 C4.06265508 22.98769596 4.06265508 22.98769596 6.38916016 27.61816406 C8.19055743 28.89170553 8.19055743 28.89170553 11 30 C10.34 30.66 9.68 31.32 9 32 C4.23758767 30.32073669 4.23758767 30.32073669 2 28 C0.95927871 23.83013532 1.06720457 19.71677021 1.125 15.4375 C1.10970786 13.16534292 1.09160936 10.89320248 1.0703125 8.62109375 C1.07820801 7.6148999 1.08610352 6.60870605 1.09423828 5.57202148 C1.11635049 2.88025233 1.11635049 2.88025233 0 0 Z " fill="#A0D2F0" transform="translate(85,54)"/>
<path d="M0 0 C0 2.97 0 5.94 0 9 C-1.69270833 8.21875 -3.38541667 7.4375 -5.078125 6.65625 C-7.29242836 5.78457076 -7.29242836 5.78457076 -11 6 C-12.34164079 5.7018576 -13.67851173 5.37756808 -15 5 C-9.83783423 1.24569762 -6.43985624 -0.67081836 0 0 Z " fill="#57AEF1" transform="translate(87,134)"/>
<path d="M0 0 C-3.43498427 1.98355733 -6.87340233 3.96108444 -10.3125 5.9375 C-11.28896484 6.50146484 -12.26542969 7.06542969 -13.27148438 7.64648438 C-14.20927734 8.18466797 -15.14707031 8.72285156 -16.11328125 9.27734375 C-17.40939331 10.02359009 -17.40939331 10.02359009 -18.73168945 10.78491211 C-21 12 -21 12 -24 13 C-23.67 11.35 -23.34 9.7 -23 8 C-19.535 7.505 -19.535 7.505 -16 7 C-15.67 6.01 -15.34 5.02 -15 4 C-13.35 4 -11.7 4 -10 4 C-10 3.34 -10 2.68 -10 2 C-4.10714286 -1.34821429 -4.10714286 -1.34821429 0 0 Z " fill="#AED8F3" transform="translate(123,187)"/>
<path d="M0 0 C1.32 0 2.64 0 4 0 C7.57428854 6.8193663 7.3739161 12.94933975 7.17578125 20.52539062 C7.20235681 23.18484523 7.2703949 25.44009247 8 28 C10.24056657 30.13779453 12.05567708 30.84425333 15 32 C14.34 32.66 13.68 33.32 13 34 C13 33.34 13 32.68 13 32 C12.030625 31.855625 11.06125 31.71125 10.0625 31.5625 C7 31 7 31 6 30 C5.1022255 22.03086583 4.83380931 14.01408459 5 6 C3.35 6 1.7 6 0 6 C0.66 4.68 1.32 3.36 2 2 C1.34 1.34 0.68 0.68 0 0 Z " fill="#B5DDF4" transform="translate(82,128)"/>
<path d="M0 0 C0.66 0.33 1.32 0.66 2 1 C0.07386546 3.14014948 -1.73306763 4.47433788 -4.1875 6.0625 C-5.115625 6.701875 -6.04375 7.34125 -7 8 C-7 8.66 -7 9.32 -7 10 C-5.865625 10.12375 -4.73125 10.2475 -3.5625 10.375 C-2.386875 10.58125 -1.21125 10.7875 0 11 C1 13 1 13 1 17 C-3.32464532 15.4274017 -7.12178595 13.4611743 -11 11 C-11.33 10.01 -11.66 9.02 -12 8 C-8 5.33333333 -4 2.66666667 0 0 Z " fill="#2E8CD6" transform="translate(123,135)"/>
<path d="M0 0 C1.65 0.33 3.3 0.66 5 1 C3.35 2.65 1.7 4.3 0 6 C0.70640625 6.27070312 1.4128125 6.54140625 2.140625 6.8203125 C5.0976694 8.0402953 7.91395067 9.39565535 10.75 10.875 C11.71421875 11.36742187 12.6784375 11.85984375 13.671875 12.3671875 C16 14 16 14 17 18 C13.37 16.02 9.74 14.04 6 12 C6 11.34 6 10.68 6 10 C4.35 9.67 2.7 9.34 1 9 C1 8.34 1 7.68 1 7 C-0.65 7 -2.3 7 -4 7 C-3.67 6.01 -3.34 5.02 -3 4 C-2.34 3.67 -1.68 3.34 -1 3 C-0.67 2.01 -0.34 1.02 0 0 Z " fill="#60A5D4" transform="translate(69,39)"/>
<path d="M0 0 C1.67013418 0.65793165 3.3357865 1.32723284 5 2 C6.794375 2.7115625 6.794375 2.7115625 8.625 3.4375 C11.6830945 4.85328449 12.74115527 5.74115527 15 8 C17.29344804 9.13378131 19.61777867 10.05610098 22 11 C22 11.99 22 12.98 22 14 C23.65 14 25.3 14 27 14 C25.35253906 15.17919922 25.35253906 15.17919922 23 16 C20.34277344 14.94189453 20.34277344 14.94189453 17.359375 13.1328125 C15.75449219 12.17568359 15.75449219 12.17568359 14.1171875 11.19921875 C13.00601563 10.51472656 11.89484375 9.83023438 10.75 9.125 C9.62335938 8.44824219 8.49671875 7.77148438 7.3359375 7.07421875 C4.54832582 5.39692698 1.77058544 3.70521883 -1 2 C-0.67 1.34 -0.34 0.68 0 0 Z " fill="#8FC7EE" transform="translate(56,174)"/>
<path d="M0 0 C0.33 0 0.66 0 1 0 C1 11.88 1 23.76 1 36 C-3.38762753 34.90309312 -6.14499723 33.29817473 -10 31 C-10 30.34 -10 29.68 -10 29 C-7.0625 29.375 -7.0625 29.375 -4 30 C-3.67 30.66 -3.34 31.32 -3 32 C-2.01 32.33 -1.02 32.66 0 33 C0 22.11 0 11.22 0 0 Z " fill="#67B6F5" transform="translate(98,164)"/>
<path d="M0 0 C0.33 0.99 0.66 1.98 1 3 C2.89179203 3.6814823 2.89179203 3.6814823 5 4 C5.99 4.33 6.98 4.66 8 5 C8 5.66 8 6.32 8 7 C8.84884766 7.18949219 8.84884766 7.18949219 9.71484375 7.3828125 C12.11375061 8.03072239 14.2858516 8.88113319 16.5625 9.875 C17.32691406 10.20242187 18.09132813 10.52984375 18.87890625 10.8671875 C21.04281745 12.02286752 22.44875437 13.10678648 24 15 C24 15.66 24 16.32 24 17 C19.3067406 15.63378723 15.55942383 13.67580944 11.4375 11.0625 C9.79587891 10.02802734 9.79587891 10.02802734 8.12109375 8.97265625 C7.09113281 8.32167969 6.06117187 7.67070312 5 7 C4.04222656 6.50371094 3.08445312 6.00742188 2.09765625 5.49609375 C1.05931641 4.75552734 1.05931641 4.75552734 0 4 C0 2.68 0 1.36 0 0 Z " fill="#5581A3" transform="translate(12,147)"/>
<path d="M0 0 C3.35946171 0.39993592 5.8567608 0.92526651 8.875 2.5 C12.71384389 4.34264507 15.77560326 4.63582787 20 5 C20 6.65 20 8.3 20 10 C14.48258999 9.55017294 10.71250322 8.05373346 6.0625 5 C5.47404297 4.63132812 4.88558594 4.26265625 4.27929688 3.8828125 C2.82833964 2.95932288 1.41050292 1.98417046 0 1 C0 0.67 0 0.34 0 0 Z " fill="#70B9F0" transform="translate(67,119)"/>
<path d="M0 0 C1.31602523 0.61754259 2.62773556 1.24428742 3.9375 1.875 C4.66839844 2.22304687 5.39929687 2.57109375 6.15234375 2.9296875 C8 4 8 4 9 6 C7.02 6.66 5.04 7.32 3 8 C2.67 17.9 2.34 27.8 2 38 C1.67 38 1.34 38 1 38 C1.00523682 36.95545654 1.01047363 35.91091309 1.01586914 34.8347168 C1.03396598 30.96021379 1.04544918 27.08571452 1.05493164 23.21118164 C1.05996113 21.53409192 1.06678548 19.85700658 1.07543945 18.17993164 C1.08756559 15.769683 1.09324215 13.35949232 1.09765625 10.94921875 C1.10281754 10.19912033 1.10797882 9.44902191 1.11329651 8.67619324 C1.11363785 5.51048768 1.00887343 3.02662028 0 0 Z " fill="#3F96D9" transform="translate(55,136)"/>
<path d="M0 0 C0.33 0 0.66 0 1 0 C0.99097656 0.96421875 0.98195313 1.9284375 0.97265625 2.921875 C0.77654968 9.86699925 0.77654968 9.86699925 3.625 15.8203125 C5.74253253 17.04885516 5.74253253 17.04885516 9 18 C9 18.66 9 19.32 9 20 C7.68 20 6.36 20 5 20 C5 20.66 5 21.32 5 22 C3.68 21.67 2.36 21.34 1 21 C-1.39769551 14.1066254 -2.03832848 7.0933831 0 0 Z " fill="#89C3EF" transform="translate(110,43)"/>
<path d="M0 0 C0.66 0.33 1.32 0.66 2 1 C2.10824843 2.6026782 2.18570645 4.20745748 2.25 5.8125 C2.29640625 6.70582031 2.3428125 7.59914063 2.390625 8.51953125 C2 11 2 11 -0.015625 12.82421875 C-0.99789062 13.40623047 -0.99789062 13.40623047 -2 14 C-1.67 12.68 -1.34 11.36 -1 10 C-1.99 10 -2.98 10 -4 10 C-4.6875 8.3125 -4.6875 8.3125 -5 6 C-2.73846154 1.36923077 -2.73846154 1.36923077 0 0 Z " fill="#135992" transform="translate(52,27)"/>
<path d="M0 0 C0.66 0.33 1.32 0.66 2 1 C1.01 1.66 0.02 2.32 -1 3 C-0.67 2.01 -0.34 1.02 0 0 Z M-3 2 C1.01115119 5.82882614 2.25149519 8.42608555 2.4140625 13.98046875 C2.45273438 15.14384766 2.49140625 16.30722656 2.53125 17.50585938 C2.5621875 18.72080078 2.593125 19.93574219 2.625 21.1875 C2.66367188 22.41404297 2.70234375 23.64058594 2.7421875 24.90429688 C2.83656103 27.93604656 2.92214549 30.96778841 3 34 C2.34 34 1.68 34 1 34 C0.83125405 30.77093849 0.66537263 27.54173589 0.5 24.3125 C0.45230469 23.40048828 0.40460938 22.48847656 0.35546875 21.54882812 C0.31035156 20.66259766 0.26523438 19.77636719 0.21875 18.86328125 C0.1559082 17.64572144 0.1559082 17.64572144 0.09179688 16.40356445 C0 14 0 14 0.17382812 11.34057617 C0.0877832 10.18199097 0.0877832 10.18199097 0 9 C-2.90412546 6.64677204 -2.90412546 6.64677204 -6 5 C-5.01 4.01 -4.02 3.02 -3 2 Z " fill="#A9D2F2" transform="translate(109,111)"/>
<path d="M0 0 C4.02511566 1.21689543 7.59257117 2.49453762 11 5 C11 5.99 11 6.98 11 8 C9.35546875 9.421875 9.35546875 9.421875 7.1875 10.75 C6.47980469 11.19859375 5.77210938 11.6471875 5.04296875 12.109375 C3 13 3 13 0 12 C0.825 11.21625 1.65 10.4325 2.5 9.625 C5.22988506 7.36278736 5.22988506 7.36278736 5 5 C4.175 4.505 3.35 4.01 2.5 3.5 C1.675 3.005 0.85 2.51 0 2 C0 1.34 0 0.68 0 0 Z " fill="#64B2EF" transform="translate(173,43)"/>
<path d="M0 0 C-0.99 0.33 -1.98 0.66 -3 1 C-3.12375 1.94875 -3.2475 2.8975 -3.375 3.875 C-4 7 -4 7 -6 9 C-6.763125 8.525625 -7.52625 8.05125 -8.3125 7.5625 C-10.96410548 5.89893903 -10.96410548 5.89893903 -14 5 C-12.75443908 4.18071114 -11.50333365 3.36984814 -10.25 2.5625 C-9.20585937 1.88380859 -9.20585937 1.88380859 -8.140625 1.19140625 C-5.17385561 -0.45980664 -3.14566509 -1.57283254 0 0 Z " fill="#4398D8" transform="translate(154,120)"/>
<path d="M0 0 C0.66 0.33 1.32 0.66 2 1 C0.9375 3.5 0.9375 3.5 -1 6 C-4.6875 6.3125 -4.6875 6.3125 -8 6 C-8.33 7.32 -8.66 8.64 -9 10 C-10.98 10 -12.96 10 -15 10 C-12.38221206 7.0447272 -9.32416665 5.24167273 -5.9375 3.25 C-4.87402344 2.61578125 -3.81054688 1.9815625 -2.71484375 1.328125 C-1.81894531 0.88984375 -0.92304687 0.4515625 0 0 Z " fill="#6791B0" transform="translate(44,30)"/>
<path d="M0 0 C1.32 0.66 2.64 1.32 4 2 C4 2.66 4 3.32 4 4 C2.783125 3.938125 1.56625 3.87625 0.3125 3.8125 C-3.64406999 3.79156577 -5.68951963 4.79301309 -9 7 C-10.32 7 -11.64 7 -13 7 C-13 6.01 -13 5.02 -13 4 C-12.14535156 3.79503906 -11.29070312 3.59007812 -10.41015625 3.37890625 C-9.30542969 3.10949219 -8.20070313 2.84007812 -7.0625 2.5625 C-5.40927734 2.16224609 -5.40927734 2.16224609 -3.72265625 1.75390625 C-1.10578746 1.27004275 -1.10578746 1.27004275 0 0 Z " fill="#2389D7" transform="translate(77,138)"/>
<path d="M0 0 C4.76551013 1.37605916 8.7248553 3.46778066 12.875 6.125 C13.46796875 6.49753906 14.0609375 6.87007812 14.671875 7.25390625 C16.1181343 8.16365 17.55958046 9.08103798 19 10 C15.25373781 11.11353866 13.52456128 10.80746732 10 9 C9 8 8 7 7 6 C5.96875 5.505 4.9375 5.01 3.875 4.5 C1 3 1 3 0 0 Z " fill="#89C4ED" transform="translate(154,32)"/>
<path d="M0 0 C0.99 0 1.98 0 3 0 C3.33 6.6 3.66 13.2 4 20 C3.01 20.33 2.02 20.66 1 21 C0.67 14.07 0.34 7.14 0 0 Z " fill="#3788CF" transform="translate(65,47)"/>
<path d="M0 0 C0.33 0 0.66 0 1 0 C1.12375 0.804375 1.2475 1.60875 1.375 2.4375 C1.684375 3.7059375 1.684375 3.7059375 2 5 C2.66 5.33 3.32 5.66 4 6 C4 5.34 4 4.68 4 4 C5.32 4 6.64 4 8 4 C6.78836152 7.63491543 5.89228938 7.95246215 2.625 9.75 C1.83351563 10.19859375 1.04203125 10.6471875 0.2265625 11.109375 C-2 12 -2 12 -5 11 C-3.68 10.67 -2.36 10.34 -1 10 C-0.67 6.7 -0.34 3.4 0 0 Z " fill="#5499D0" transform="translate(56,40)"/>
<path d="M0 0 C3.79049707 1.42749981 7.27122456 3.16236542 10.8125 5.125 C12.27623047 5.93324219 12.27623047 5.93324219 13.76953125 6.7578125 C14.50558594 7.16773438 15.24164063 7.57765625 16 8 C15.01 9.485 15.01 9.485 14 11 C13.34 11 12.68 11 12 11 C11.79375 10.195625 11.5875 9.39125 11.375 8.5625 C10.92125 7.716875 10.4675 6.87125 10 6 C7.09926819 5.32198966 7.09926819 5.32198966 4 5 C1.625 3.5625 1.625 3.5625 0 2 C0 1.34 0 0.68 0 0 Z " fill="#ADD6F2" transform="translate(102,2)"/>
<path d="M0 0 C0 2 0 2 -1.9375 4.5625 C-5.9074357 7.72224474 -9.05186827 7.88141732 -14 8 C-11.72402354 5.50447597 -9.39278822 3.93377014 -6.4375 2.3125 C-5.65246094 1.87550781 -4.86742188 1.43851563 -4.05859375 0.98828125 C-2 0 -2 0 0 0 Z " fill="#88C6F1" transform="translate(76,13)"/>
<path d="M0 0 C-0.66 0 -1.32 0 -2 0 C-2.33 0.99 -2.66 1.98 -3 3 C-7.17839396 5.63084064 -12.22067752 6.89707943 -17 8 C-13.2438856 3.39022324 -5.96911561 -1.9897052 0 0 Z " fill="#5FB2F7" transform="translate(87,109)"/>
<path d="M0 0 C1.67013418 0.65793165 3.3357865 1.32723284 5 2 C5.61230469 2.22945312 6.22460938 2.45890625 6.85546875 2.6953125 C8.60506322 3.38072064 10.30649294 4.18581391 12 5 C12.33 5.99 12.66 6.98 13 8 C9.2397015 7.41892368 6.46964968 6.34800504 3.1875 4.4375 C2.39730469 3.98246094 1.60710938 3.52742187 0.79296875 3.05859375 C0.20128906 2.70925781 -0.39039063 2.35992187 -1 2 C-0.67 1.34 -0.34 0.68 0 0 Z " fill="#83C1EB" transform="translate(56,174)"/>
<path d="M0 0 C-3.64859761 3.04049801 -7.7444533 4.96518762 -12 7 C-11.67 5.35 -11.34 3.7 -11 2 C-7.17679443 0.57741188 -4.08718695 -0.24042276 0 0 Z " fill="#5382A4" transform="translate(167,161)"/>
<path d="M0 0 C3.96 0.33 7.92 0.66 12 1 C12 2.98 12 4.96 12 7 C7.69235185 5.43358249 3.93828536 3.31663844 0 1 C0 0.67 0 0.34 0 0 Z " fill="#5FA6DB" transform="translate(112,145)"/>
<path d="M0 0 C2.475 0.99 2.475 0.99 5 2 C4.01 2.33 3.02 2.66 2 3 C2.33 4.98 2.66 6.96 3 9 C2.34 9 1.68 9 1 9 C1 12.96 1 16.92 1 21 C0.67 21 0.34 21 0 21 C0 14.07 0 7.14 0 0 Z " fill="#0D5EA0" transform="translate(142,125)"/>
<path d="M0 0 C2.9375 0.375 2.9375 0.375 6 1 C6.33 1.66 6.66 2.32 7 3 C9.01669827 4.13350534 9.01669827 4.13350534 11 5 C11 5.66 11 6.32 11 7 C6.80639551 6.32902328 3.59665648 4.1441606 0 2 C0 1.34 0 0.68 0 0 Z " fill="#81C1EE" transform="translate(88,193)"/>
<path d="M0 0 C0.66 0.33 1.32 0.66 2 1 C-0.0063228 4.0094842 -1.55455695 5.78396128 -5 7 C-7.75 7.125 -7.75 7.125 -10 7 C-7.20283196 3.70921407 -3.80471422 1.93694542 0 0 Z " fill="#2B8CD4" transform="translate(120,87)"/>
<path d="M0 0 C2.01278414 3.01917621 2.29192943 4.04590762 2.5625 7.5 C2.78944318 10.27889602 3.10751754 12.32255263 4 15 C2.68 14.34 1.36 13.68 0 13 C0 8.71 0 4.42 0 0 Z " fill="#62ACEA" transform="translate(66,68)"/>
<path d="M0 0 C0.763125 0.20625 1.52625 0.4125 2.3125 0.625 C2.3125 1.285 2.3125 1.945 2.3125 2.625 C1.3225 2.625 0.3325 2.625 -0.6875 2.625 C-1.0175 3.285 -1.3475 3.945 -1.6875 4.625 C-3.9975 4.625 -6.3075 4.625 -8.6875 4.625 C-3.77052239 -0.5261194 -3.77052239 -0.5261194 0 0 Z " fill="#88C4EF" transform="translate(96.6875,1.375)"/>
<path d="M0 0 C4.875 1.875 4.875 1.875 6 3 C6.04063832 4.66617115 6.042721 6.33388095 6 8 C5.01 8.33 4.02 8.66 3 9 C2.87625 8.195625 2.7525 7.39125 2.625 6.5625 C2.315625 5.2940625 2.315625 5.2940625 2 4 C1.34 3.67 0.68 3.34 0 3 C0 2.01 0 1.02 0 0 Z " fill="#366E9B" transform="translate(49,133)"/>
<path d="M0 0 C6.13053511 -0.32712342 10.62669111 -0.39366878 16 3 C15.01 3.66 14.02 4.32 13 5 C13 4.34 13 3.68 13 3 C11.783125 2.855625 10.56625 2.71125 9.3125 2.5625 C6.17329623 2.17219047 3.0924866 1.67648144 0 1 C0 0.67 0 0.34 0 0 Z " fill="#A7D3F4" transform="translate(115,76)"/>
<path d="M0 0 C4.97209562 1.76429199 9.43438061 4.3939166 14 7 C13.01 7.66 12.02 8.32 11 9 C10.67 8.01 10.34 7.02 10 6 C7.92985693 5.08710716 7.92985693 5.08710716 5.5 4.5 C3.03125 3.84375 3.03125 3.84375 1 3 C0.67 2.01 0.34 1.02 0 0 Z " fill="#BBDEF7" transform="translate(118,11)"/>
<path d="M0 0 C0 0.66 0 1.32 0 2 C-3.75960806 5.75960806 -6.75900345 6.58894145 -12 7 C-9.20232475 3.70861735 -4.40323273 0 0 0 Z " fill="#95C9EF" transform="translate(88,6)"/>
<path d="M0 0 C-0.33 0.99 -0.66 1.98 -1 3 C-4.5625 4.6875 -4.5625 4.6875 -8 6 C-7.625 3.5625 -7.625 3.5625 -7 1 C-4.53721199 -0.231394 -2.7204945 -0.07159196 0 0 Z " fill="#A7D1F0" transform="translate(107,194)"/>
<path d="M0 0 C1.65 0.33 3.3 0.66 5 1 C3.35 2.65 1.7 4.3 0 6 C0.66 6.33 1.32 6.66 2 7 C0.02 7 -1.96 7 -4 7 C-3.67 6.01 -3.34 5.02 -3 4 C-2.34 3.67 -1.68 3.34 -1 3 C-0.67 2.01 -0.34 1.02 0 0 Z " fill="#78BAE4" transform="translate(69,39)"/>
<path d="M0 0 C3.45925163 1.2491742 6.14693203 2.67527795 9 5 C7.02 5.99 7.02 5.99 5 7 C0 1.125 0 1.125 0 0 Z " fill="#5CAFF2" transform="translate(176,95)"/>
<path d="M0 0 C-0.1875 1.875 -0.1875 1.875 -1 4 C-3.63678659 5.49655455 -5.16532951 6.17595756 -8.16796875 5.54296875 C-8.77253906 5.36378906 -9.37710938 5.18460938 -10 5 C-8.71186658 4.16121545 -7.41936744 3.32913217 -6.125 2.5 C-5.40570313 2.0359375 -4.68640625 1.571875 -3.9453125 1.09375 C-2 0 -2 0 0 0 Z " fill="#7FBCE9" transform="translate(82,134)"/>
<path d="M0 0 C-0.6875 1.9375 -0.6875 1.9375 -2 4 C-4.5625 4.625 -4.5625 4.625 -7 5 C-7.33 5.66 -7.66 6.32 -8 7 C-8.66 6.34 -9.32 5.68 -10 5 C-8.71186658 4.16121545 -7.41936744 3.32913217 -6.125 2.5 C-5.40570313 2.0359375 -4.68640625 1.571875 -3.9453125 1.09375 C-2 0 -2 0 0 0 Z " fill="#0D61A4" transform="translate(42,133)"/>
<path d="M0 0 C3.34373475 0.55728913 6.03312999 1.35173889 9 3 C9 3.66 9 4.32 9 5 C9.99 5 10.98 5 12 5 C12 5.66 12 6.32 12 7 C7.39104317 5.68315519 3.85859765 3.84801255 0 1 C0 0.67 0 0.34 0 0 Z " fill="#2E8CD5" transform="translate(119,111)"/>
<path d="M0 0 C3.59007126 1.33345504 6.79570907 2.8943231 10 5 C10 5.33 10 5.66 10 6 C5.18569279 6.56638908 2.79692186 4.82561627 -1 2 C-0.67 1.34 -0.34 0.68 0 0 Z " fill="#B5D8F2" transform="translate(113,70)"/>
<path d="M0 0 C0 1.65 0 3.3 0 5 C-1.65 5.33 -3.3 5.66 -5 6 C-5 5.34 -5 4.68 -5 4 C-5.66 3.67 -6.32 3.34 -7 3 C-2.25 0 -2.25 0 0 0 Z " fill="#447DAA" transform="translate(29,40)"/>
<path d="M0 0 C4.61513112 1.31860889 8.09897612 3.21355437 12 6 C11.01 6.495 11.01 6.495 10 7 C7.375 6.0625 7.375 6.0625 5 5 C5 4.34 5 3.68 5 3 C3.35 2.67 1.7 2.34 0 2 C0 1.34 0 0.68 0 0 Z " fill="#92C9EF" transform="translate(142,25)"/>
<path d="M0 0 C0.33 0.99 0.66 1.98 1 3 C2.89179203 3.6814823 2.89179203 3.6814823 5 4 C8 5 8 5 9.1875 7.0625 C9.455625 7.701875 9.72375 8.34125 10 9 C6.41275276 7.66759388 3.08350711 6.29060528 0 4 C0 2.68 0 1.36 0 0 Z " fill="#5F90B1" transform="translate(12,147)"/>
<path d="M0 0 C0.66 0.33 1.32 0.66 2 1 C0.9375 3.4375 0.9375 3.4375 -1 6 C-4.6875 6.8125 -4.6875 6.8125 -8 7 C-6.6875 5.5 -6.6875 5.5 -5 4 C-4.01 4 -3.02 4 -2 4 C-1.34 2.68 -0.68 1.36 0 0 Z " fill="#3A90D2" transform="translate(138,126)"/>
<path d="M0 0 C2.475 0.99 2.475 0.99 5 2 C5.33 6.62 5.66 11.24 6 16 C5.34 16 4.68 16 4 16 C3.96261719 15.18015625 3.92523438 14.3603125 3.88671875 13.515625 C3.82097656 12.43796875 3.75523438 11.3603125 3.6875 10.25 C3.62949219 9.18265625 3.57148437 8.1153125 3.51171875 7.015625 C2.96909846 3.8178932 2.14928855 2.37401309 0 0 Z " fill="#2688D3" transform="translate(38,66)"/>
<path d="M0 0 C3.58457283 -0.42171445 5.02895505 0.01614801 8.25 1.8125 C11 4 11 4 12 7 C8 5 4 3 0 1 C0 0.67 0 0.34 0 0 Z " fill="#0E5FA4" transform="translate(16,52)"/>
<path d="M0 0 C1.65 0.33 3.3 0.66 5 1 C-0.14285714 5.42857143 -0.14285714 5.42857143 -4 6 C-3.67 4.68 -3.34 3.36 -3 2 C-2.01 2 -1.02 2 0 2 C0 1.34 0 0.68 0 0 Z " fill="#85C1ED" transform="translate(79,33)"/>
<path d="M0 0 C-1.75 2 -1.75 2 -4 4 C-5.32 4 -6.64 4 -8 4 C-8 3.01 -8 2.02 -8 1 C-2.25 -1.125 -2.25 -1.125 0 0 Z " fill="#5AA5DB" transform="translate(72,141)"/>
<path d="M0 0 C-3.19990508 2.74277578 -6.00499382 4.6302836 -10 6 C-10 5.34 -10 4.68 -10 4 C-9.01 4 -8.02 4 -7 4 C-7 3.01 -7 2.02 -7 1 C-4.53721199 -0.231394 -2.7204945 -0.07159196 0 0 Z " fill="#2282CE" transform="translate(30,139)"/>
<path d="M0 0 C3.95820859 0.56545837 6.6659053 1.80902348 10 4 C7.33438378 4.98726527 6.09873015 5.0275526 3.3125 4.25 C1 3 1 3 0 0 Z " fill="#7FBEF0" transform="translate(163,38)"/>
<path d="M0 0 C2.5 1.3125 2.5 1.3125 5 3 C5 3.99 5 4.98 5 6 C2.97954558 5.39816251 0.97888961 4.72693904 -1 4 C-1.33 3.34 -1.66 2.68 -2 2 C-1.34 2 -0.68 2 0 2 C0 1.34 0 0.68 0 0 Z " fill="#4AADFA" transform="translate(81,136)"/>
<path d="M0 0 C1.67542976 0.28604898 3.34385343 0.61781233 5 1 C0.25 5 0.25 5 -2 5 C-1.125 1.125 -1.125 1.125 0 0 Z " fill="#58A4D6" transform="translate(124,57)"/>
<path d="M0 0 C0 1.65 0 3.3 0 5 C-2.64 5 -5.28 5 -8 5 C-1.87096774 0 -1.87096774 0 0 0 Z " fill="#308ED3" transform="translate(142,25)"/>
<path d="M0 0 C0.66 0 1.32 0 2 0 C1.67 0.99 1.34 1.98 1 3 C-5.15789474 5.28070175 -5.15789474 5.28070175 -9 4 C-5.5647952 1.70986347 -4.014669 1.82157027 0 2 C0 1.34 0 0.68 0 0 Z " fill="#5E9FD3" transform="translate(59,23)"/>
<path d="M0 0 C3.77545388 1.09068668 6.47043472 1.9083091 9 5 C8.01 5.495 8.01 5.495 7 6 C7 5.34 7 4.68 7 4 C4.03 3.505 4.03 3.505 1 3 C0.67 2.01 0.34 1.02 0 0 Z " fill="#9AD1F1" transform="translate(88,156)"/>
<path d="M0 0 C3.77545388 1.09068668 6.47043472 1.9083091 9 5 C5.26512223 4.5020163 3.18762365 4.12508244 0 2 C0 1.34 0 0.68 0 0 Z " fill="#8FC7F0" transform="translate(173,43)"/>
<path d="M0 0 C0 0.66 0 1.32 0 2 C-0.99 2 -1.98 2 -3 2 C-3.33 3.32 -3.66 4.64 -4 6 C-4.99 5.67 -5.98 5.34 -7 5 C-6 2 -6 2 -4.0625 0.8125 C-2 0 -2 0 0 0 Z " fill="#73ADD9" transform="translate(128,158)"/>
<path d="M0 0 C0.66 0.33 1.32 0.66 2 1 C-0.35380297 4.92300495 -2.64464931 5.83857315 -7 7 C-6.34 6.01 -5.68 5.02 -5 4 C-4.01 4 -3.02 4 -2 4 C-2 3.01 -2 2.02 -2 1 C-1.34 0.67 -0.68 0.34 0 0 Z " fill="#49779D" transform="translate(20,44)"/>
<path d="M0 0 C1.32 0 2.64 0 4 0 C4 0.66 4 1.32 4 2 C1.625 3.6875 1.625 3.6875 -1 5 C-1.66 4.67 -2.32 4.34 -3 4 C-1.75 2 -1.75 2 0 0 Z " fill="#5882A4" transform="translate(180,150)"/>
<path d="M0 0 C2.875 0.25 2.875 0.25 6 1 C7.375 3.0625 7.375 3.0625 8 5 C4.62496331 3.8141763 2.35277269 2.72426311 0 0 Z " fill="#98CEF0" transform="translate(67,119)"/>
<path d="M0 0 C3.375 0.25 3.375 0.25 7 1 C8.4375 3.0625 8.4375 3.0625 9 5 C5.54074837 3.7508258 2.85306797 2.32472205 0 0 Z " fill="#92CAEE" transform="translate(141,62)"/>
</svg>
